<svg xmlns="http://www.w3.org/2000/svg" xmlns:xlink="http://www.w3.org/1999/xlink" width="2000" zoomAndPan="magnify" viewBox="0 0 1500 374.999991" height="500" preserveAspectRatio="xMidYMid meet" version="1.0"><defs><g/></defs><g fill="#ffffff" fill-opacity="1"><g transform="translate(388.178513, 285.796619)"><g><path d="M 19.6875 0 L 19.6875 -196.8125 L 105.71875 -196.8125 C 114.90625 -196.8125 123.523438 -194.9375 131.578125 -191.1875 C 139.640625 -187.445312 146.71875 -182.34375 152.8125 -175.875 C 158.90625 -169.40625 163.6875 -161.859375 167.15625 -153.234375 C 170.625 -144.617188 172.359375 -135.34375 172.359375 -125.40625 C 172.359375 -117.90625 171.328125 -110.78125 169.265625 -104.03125 C 167.203125 -97.28125 164.25 -91.1875 160.40625 -85.75 C 156.5625 -80.320312 152.015625 -75.546875 146.765625 -71.421875 C 141.523438 -67.296875 135.8125 -64.015625 129.625 -61.578125 L 171.796875 0 L 118.65625 0 L 79.859375 -57.359375 L 63.265625 -57.359375 L 63.265625 0 Z M 105.71875 -101.21875 C 111.90625 -101.21875 117.15625 -103.140625 121.46875 -106.984375 C 125.78125 -110.828125 127.9375 -116.6875 127.9375 -124.5625 C 127.9375 -128.5 127.375 -132.148438 126.25 -135.515625 C 125.125 -138.890625 123.53125 -141.84375 121.46875 -144.375 C 119.40625 -146.90625 117.0625 -148.875 114.4375 -150.28125 C 111.8125 -151.6875 108.90625 -152.390625 105.71875 -152.390625 L 63.265625 -152.390625 L 63.265625 -101.21875 Z M 105.71875 -101.21875 "/></g></g></g><g fill="#ffffff" fill-opacity="1"><g transform="translate(573.184669, 285.796619)"><g><path d="M 90.25 -157.453125 C 101.3125 -157.453125 111.71875 -155.34375 121.46875 -151.125 C 131.21875 -146.90625 139.695312 -141.1875 146.90625 -133.96875 C 154.125 -126.757812 159.84375 -118.28125 164.0625 -108.53125 C 168.28125 -98.78125 170.390625 -88.378906 170.390625 -77.328125 C 170.390625 -66.265625 168.28125 -55.859375 164.0625 -46.109375 C 159.84375 -36.359375 154.125 -27.828125 146.90625 -20.515625 C 139.695312 -13.210938 131.21875 -7.453125 121.46875 -3.234375 C 111.71875 0.984375 101.3125 3.09375 90.25 3.09375 C 79.195312 3.09375 68.796875 0.984375 59.046875 -3.234375 C 49.296875 -7.453125 40.765625 -13.210938 33.453125 -20.515625 C 26.148438 -27.828125 20.390625 -36.359375 16.171875 -46.109375 C 11.953125 -55.859375 9.84375 -66.265625 9.84375 -77.328125 C 9.84375 -88.378906 11.953125 -98.78125 16.171875 -108.53125 C 20.390625 -118.28125 26.148438 -126.757812 33.453125 -133.96875 C 40.765625 -141.1875 49.296875 -146.90625 59.046875 -151.125 C 68.796875 -155.34375 79.195312 -157.453125 90.25 -157.453125 Z M 52.015625 -77.328125 C 52.015625 -72.078125 53 -67.109375 54.96875 -62.421875 C 56.9375 -57.734375 59.65625 -53.65625 63.125 -50.1875 C 66.59375 -46.71875 70.671875 -44 75.359375 -42.03125 C 80.046875 -40.0625 85.007812 -39.078125 90.25 -39.078125 C 95.5 -39.078125 100.421875 -40.0625 105.015625 -42.03125 C 109.609375 -44 113.640625 -46.71875 117.109375 -50.1875 C 120.578125 -53.65625 123.296875 -57.734375 125.265625 -62.421875 C 127.234375 -67.109375 128.21875 -72.078125 128.21875 -77.328125 C 128.21875 -82.566406 127.234375 -87.484375 125.265625 -92.078125 C 123.296875 -96.671875 120.578125 -100.703125 117.109375 -104.171875 C 113.640625 -107.640625 109.609375 -110.359375 105.015625 -112.328125 C 100.421875 -114.296875 95.5 -115.28125 90.25 -115.28125 C 85.007812 -115.28125 80.046875 -114.296875 75.359375 -112.328125 C 70.671875 -110.359375 66.59375 -107.640625 63.125 -104.171875 C 59.65625 -100.703125 56.9375 -96.671875 54.96875 -92.078125 C 53 -87.484375 52.015625 -82.566406 52.015625 -77.328125 Z M 52.015625 -77.328125 "/></g></g></g><g fill="#ffffff" fill-opacity="1"><g transform="translate(753.411042, 285.796619)"><g><path d="M 90.25 -157.453125 C 103.9375 -157.453125 116.59375 -154.265625 128.21875 -147.890625 L 128.21875 -154.640625 L 170.390625 -154.640625 L 170.390625 0 L 128.21875 0 L 128.21875 -6.46875 C 116.59375 -0.09375 103.9375 3.09375 90.25 3.09375 C 79.195312 3.09375 68.796875 0.984375 59.046875 -3.234375 C 49.296875 -7.453125 40.765625 -13.210938 33.453125 -20.515625 C 26.148438 -27.828125 20.390625 -36.359375 16.171875 -46.109375 C 11.953125 -55.859375 9.84375 -66.265625 9.84375 -77.328125 C 9.84375 -88.378906 11.953125 -98.78125 16.171875 -108.53125 C 20.390625 -118.28125 26.148438 -126.757812 33.453125 -133.96875 C 40.765625 -141.1875 49.296875 -146.90625 59.046875 -151.125 C 68.796875 -155.34375 79.195312 -157.453125 90.25 -157.453125 Z M 90.25 -39.078125 C 95.5 -39.078125 100.421875 -40.0625 105.015625 -42.03125 C 109.609375 -44 113.640625 -46.71875 117.109375 -50.1875 C 120.578125 -53.65625 123.296875 -57.734375 125.265625 -62.421875 C 127.234375 -67.109375 128.21875 -72.078125 128.21875 -77.328125 C 128.21875 -82.566406 127.234375 -87.484375 125.265625 -92.078125 C 123.296875 -96.671875 120.578125 -100.703125 117.109375 -104.171875 C 113.640625 -107.640625 109.609375 -110.359375 105.015625 -112.328125 C 100.421875 -114.296875 95.5 -115.28125 90.25 -115.28125 C 85.007812 -115.28125 80.046875 -114.296875 75.359375 -112.328125 C 70.671875 -110.359375 66.59375 -107.640625 63.125 -104.171875 C 59.65625 -100.703125 56.9375 -96.671875 54.96875 -92.078125 C 53 -87.484375 52.015625 -82.566406 52.015625 -77.328125 C 52.015625 -72.078125 53 -67.109375 54.96875 -62.421875 C 56.9375 -57.734375 59.65625 -53.65625 63.125 -50.1875 C 66.59375 -46.71875 70.671875 -44 75.359375 -42.03125 C 80.046875 -40.0625 85.007812 -39.078125 90.25 -39.078125 Z M 90.25 -39.078125 "/></g></g></g><g fill="#ffffff" fill-opacity="1"><g transform="translate(942.072341, 285.796619)"><g><path d="M 18.28125 -154.640625 L 60.453125 -154.640625 L 60.453125 -150.984375 C 69.453125 -155.296875 78.820312 -157.453125 88.5625 -157.453125 C 98.125 -157.453125 107.125 -155.484375 115.5625 -151.546875 C 124 -147.609375 131.40625 -142.082031 137.78125 -134.96875 C 144.144531 -142.082031 151.546875 -147.609375 159.984375 -151.546875 C 168.421875 -155.484375 177.421875 -157.453125 186.984375 -157.453125 C 196.722656 -157.453125 205.859375 -155.390625 214.390625 -151.265625 C 222.921875 -147.140625 230.375 -141.515625 236.75 -134.390625 C 243.125 -127.273438 248.179688 -118.9375 251.921875 -109.375 C 255.671875 -99.8125 257.546875 -89.597656 257.546875 -78.734375 L 257.546875 0 L 215.375 0 L 215.375 -78.734375 C 215.375 -84.722656 214.578125 -90.015625 212.984375 -94.609375 C 211.390625 -99.203125 209.234375 -103 206.515625 -106 C 203.796875 -109 200.75 -111.25 197.375 -112.75 C 194.007812 -114.25 190.546875 -115 186.984375 -115 C 182.109375 -115 177.890625 -113.921875 174.328125 -111.765625 C 170.765625 -109.609375 167.859375 -106.796875 165.609375 -103.328125 C 163.359375 -99.859375 161.671875 -95.96875 160.546875 -91.65625 C 159.421875 -87.34375 158.859375 -83.035156 158.859375 -78.734375 L 158.859375 0 L 116.6875 0 L 116.6875 -78.734375 C 116.6875 -83.035156 116.125 -87.296875 115 -91.515625 C 113.875 -95.734375 112.1875 -99.625 109.9375 -103.1875 C 107.6875 -106.75 104.78125 -109.609375 101.21875 -111.765625 C 97.65625 -113.921875 93.4375 -115 88.5625 -115 C 85.007812 -115 81.546875 -114.25 78.171875 -112.75 C 74.796875 -111.25 71.796875 -109 69.171875 -106 C 66.546875 -103 64.4375 -99.203125 62.84375 -94.609375 C 61.25 -90.015625 60.453125 -84.722656 60.453125 -78.734375 L 60.453125 0 L 18.28125 0 Z M 18.28125 -154.640625 "/></g></g></g><g fill="#ffffff" fill-opacity="1"><g transform="translate(1216.488851, 285.796619)"><g><path d="M 22.21875 -154.640625 L 64.390625 -154.640625 L 64.390625 0 L 22.21875 0 Z M 18.28125 -195.984375 C 18.28125 -202.910156 20.710938 -208.8125 25.578125 -213.6875 C 30.453125 -218.5625 36.359375 -221 43.296875 -221 C 50.234375 -221 56.140625 -218.5625 61.015625 -213.6875 C 65.890625 -208.8125 68.328125 -202.910156 68.328125 -195.984375 C 68.328125 -189.046875 65.890625 -183.140625 61.015625 -178.265625 C 56.140625 -173.390625 50.234375 -170.953125 43.296875 -170.953125 C 36.359375 -170.953125 30.453125 -173.390625 25.578125 -178.265625 C 20.710938 -183.140625 18.28125 -189.046875 18.28125 -195.984375 Z M 18.28125 -195.984375 "/></g></g></g><g fill="#ffffff" fill-opacity="1"><g transform="translate(1303.087425, 285.796619)"><g><path d="M 90.25 -157.453125 C 101.3125 -157.453125 111.71875 -155.34375 121.46875 -151.125 C 131.21875 -146.90625 139.695312 -141.1875 146.90625 -133.96875 C 154.125 -126.757812 159.84375 -118.28125 164.0625 -108.53125 C 168.28125 -98.78125 170.390625 -88.378906 170.390625 -77.328125 C 170.390625 -66.265625 168.28125 -55.859375 164.0625 -46.109375 C 159.84375 -36.359375 154.125 -27.828125 146.90625 -20.515625 C 139.695312 -13.210938 131.21875 -7.453125 121.46875 -3.234375 C 111.71875 0.984375 101.3125 3.09375 90.25 3.09375 C 79.195312 3.09375 68.796875 0.984375 59.046875 -3.234375 C 49.296875 -7.453125 40.765625 -13.210938 33.453125 -20.515625 C 26.148438 -27.828125 20.390625 -36.359375 16.171875 -46.109375 C 11.953125 -55.859375 9.84375 -66.265625 9.84375 -77.328125 C 9.84375 -88.378906 11.953125 -98.78125 16.171875 -108.53125 C 20.390625 -118.28125 26.148438 -126.757812 33.453125 -133.96875 C 40.765625 -141.1875 49.296875 -146.90625 59.046875 -151.125 C 68.796875 -155.34375 79.195312 -157.453125 90.25 -157.453125 Z M 52.015625 -77.328125 C 52.015625 -72.078125 53 -67.109375 54.96875 -62.421875 C 56.9375 -57.734375 59.65625 -53.65625 63.125 -50.1875 C 66.59375 -46.71875 70.671875 -44 75.359375 -42.03125 C 80.046875 -40.0625 85.007812 -39.078125 90.25 -39.078125 C 95.5 -39.078125 100.421875 -40.0625 105.015625 -42.03125 C 109.609375 -44 113.640625 -46.71875 117.109375 -50.1875 C 120.578125 -53.65625 123.296875 -57.734375 125.265625 -62.421875 C 127.234375 -67.109375 128.21875 -72.078125 128.21875 -77.328125 C 128.21875 -82.566406 127.234375 -87.484375 125.265625 -92.078125 C 123.296875 -96.671875 120.578125 -100.703125 117.109375 -104.171875 C 113.640625 -107.640625 109.609375 -110.359375 105.015625 -112.328125 C 100.421875 -114.296875 95.5 -115.28125 90.25 -115.28125 C 85.007812 -115.28125 80.046875 -114.296875 75.359375 -112.328125 C 70.671875 -110.359375 66.59375 -107.640625 63.125 -104.171875 C 59.65625 -100.703125 56.9375 -96.671875 54.96875 -92.078125 C 53 -87.484375 52.015625 -82.566406 52.015625 -77.328125 Z M 52.015625 -77.328125 "/></g></g></g><path fill="#ff914d" d="M 48.820312 101.445312 C 70.125 61.433594 114.21875 34.820312 160.515625 29.375 C 196.367188 25.152344 233.546875 31.984375 269.132812 50.085938 C 372.804688 108.371094 352.085938 223.394531 342.433594 260.738281 C 324.082031 331.757812 215.867188 343.914062 139.679688 342.605469 C 39.867188 340.878906 -0.046875 193.164062 48.820312 101.445312 " fill-opacity="1" fill-rule="nonzero"/><path fill="#ff914d" d="M 246.269531 92.859375 L 233.292969 105.222656 C 232.609375 105.867188 231.734375 106.195312 230.867188 106.195312 C 230 106.195312 229.132812 105.875 228.453125 105.246094 L 208.253906 86.199219 L 195.578125 104.644531 C 195.023438 105.460938 194.132812 106.011719 193.144531 106.136719 C 192.160156 106.265625 191.164062 105.980469 190.398438 105.328125 L 172.15625 89.65625 L 158.167969 105.03125 C 157.539062 105.722656 156.648438 106.144531 155.71875 106.183594 C 154.75 106.21875 153.863281 105.890625 153.179688 105.246094 L 135.667969 89.1875 C 132.589844 92.582031 129.796875 96.296875 127.347656 100.300781 C 116.902344 117.417969 113.964844 137.621094 118.699219 156.558594 L 140.707031 171.453125 L 148.082031 146.867188 C 148.460938 145.605469 149.496094 144.667969 150.792969 144.417969 C 152.074219 144.171875 153.394531 144.667969 154.214844 145.699219 L 180.503906 178.558594 L 205.324219 140.183594 C 206.074219 139.03125 207.425781 138.402344 208.792969 138.609375 C 210.164062 138.816406 211.285156 139.792969 211.667969 141.121094 L 219.058594 167.246094 L 236.125 148.902344 C 237.136719 147.816406 238.742188 147.480469 240.101562 148.070312 C 241.472656 148.664062 242.324219 150.066406 242.210938 151.550781 L 240.347656 178.894531 L 254.121094 172.628906 C 254.441406 171.984375 254.757812 171.355469 255.066406 170.71875 C 265.929688 148.132812 264.589844 121.832031 251.503906 100.359375 C 249.90625 97.726562 248.152344 95.230469 246.269531 92.859375 " fill-opacity="1" fill-rule="nonzero"/><path fill="#ffffff" d="M 255.066406 170.71875 C 254.757812 171.355469 254.441406 171.984375 254.121094 172.628906 L 255.1875 172.136719 L 257.894531 178.058594 L 249.09375 182.074219 C 244.996094 189.246094 240.347656 196.328125 235.175781 203.214844 C 208.675781 238.554688 198.953125 254.195312 196.105469 259.058594 L 182.691406 259.058594 C 179.929688 254.34375 170.566406 239.382812 143.625 203.222656 C 135.75 192.664062 129.058594 181.691406 123.742188 170.609375 C 123.121094 169.304688 122.550781 167.984375 122 166.664062 L 113.972656 161.226562 L 117.632812 155.835938 L 118.699219 156.558594 C 113.964844 137.621094 116.902344 117.417969 127.347656 100.300781 C 129.796875 96.296875 132.589844 92.582031 135.667969 89.1875 L 133.289062 87 L 137.699219 82.207031 L 140.292969 84.582031 C 152.878906 73.007812 169.246094 66.164062 186.757812 65.660156 C 188.507812 65.613281 190.28125 65.613281 192.039062 65.660156 C 211.199219 66.210938 228.988281 74.335938 241.964844 87.960938 L 244.296875 85.738281 L 248.789062 90.453125 L 246.269531 92.859375 C 248.152344 95.230469 249.90625 97.726562 251.503906 100.359375 C 264.589844 121.832031 265.929688 148.132812 255.066406 170.71875 Z M 192.238281 59.148438 C 190.34375 59.09375 188.433594 59.09375 186.558594 59.148438 C 159.96875 59.90625 135.75 74.027344 121.785156 96.914062 C 107.542969 120.25 106.082031 148.847656 117.863281 173.421875 C 123.367188 184.878906 130.273438 196.21875 138.390625 207.117188 C 167.238281 245.820312 175.808594 260.140625 177.519531 263.152344 L 177.519531 262.320312 L 184.042969 262.320312 L 184.042969 265.578125 L 194.753906 265.578125 L 194.753906 262.320312 L 201.269531 262.320312 L 201.269531 263.160156 C 203.089844 259.964844 212.207031 244.707031 240.390625 207.125 C 248.527344 196.273438 255.441406 184.976562 260.941406 173.535156 C 272.761719 148.960938 271.316406 120.328125 257.074219 96.972656 C 243.09375 74.050781 218.851562 59.90625 192.238281 59.148438 " fill-opacity="1" fill-rule="nonzero"/><path fill="#ffffff" d="M 184.042969 265.578125 L 178.785156 265.578125 L 177.878906 263.796875 C 177.867188 263.78125 177.765625 263.582031 177.519531 263.152344 L 177.519531 272.957031 L 184.042969 272.957031 L 184.042969 265.578125 " fill-opacity="1" fill-rule="nonzero"/><path fill="#ffffff" d="M 178.785156 265.578125 L 184.042969 265.578125 L 184.042969 262.320312 L 177.519531 262.320312 L 177.519531 263.152344 C 177.765625 263.582031 177.867188 263.78125 177.878906 263.796875 L 178.785156 265.578125 " fill-opacity="1" fill-rule="nonzero"/><path fill="#ffffff" d="M 199.980469 265.570312 L 198.015625 265.578125 L 194.753906 265.578125 L 194.753906 272.957031 L 201.269531 272.957031 L 201.269531 263.160156 C 201.023438 263.589844 200.902344 263.8125 200.894531 263.828125 L 199.980469 265.570312 " fill-opacity="1" fill-rule="nonzero"/><path fill="#ffffff" d="M 194.753906 262.320312 L 194.753906 265.578125 L 198.015625 265.578125 L 199.980469 265.570312 L 200.894531 263.828125 C 200.902344 263.8125 201.023438 263.589844 201.269531 263.160156 L 201.269531 262.320312 L 194.753906 262.320312 " fill-opacity="1" fill-rule="nonzero"/><path fill="#ffffff" d="M 208.507812 305.234375 L 170.277344 305.234375 L 170.277344 279.46875 L 208.507812 279.46875 Z M 194.753906 276.207031 L 194.753906 272.957031 L 184.042969 272.957031 L 184.042969 276.207031 L 177.519531 276.207031 L 177.519531 272.957031 L 167.351562 272.957031 C 165.378906 272.957031 163.769531 274.554688 163.769531 276.535156 L 163.769531 308.160156 C 163.769531 310.140625 165.378906 311.746094 167.351562 311.746094 L 211.445312 311.746094 C 213.417969 311.746094 215.023438 310.140625 215.023438 308.160156 L 215.023438 276.535156 C 215.023438 274.554688 213.417969 272.957031 211.445312 272.957031 L 201.269531 272.957031 L 201.269531 276.207031 L 194.753906 276.207031 " fill-opacity="1" fill-rule="nonzero"/><path fill="#ffffff" d="M 184.042969 276.207031 L 184.042969 272.957031 L 177.519531 272.957031 L 177.519531 276.207031 L 184.042969 276.207031 " fill-opacity="1" fill-rule="nonzero"/><path fill="#ffffff" d="M 194.753906 276.207031 L 201.269531 276.207031 L 201.269531 272.957031 L 194.753906 272.957031 L 194.753906 276.207031 " fill-opacity="1" fill-rule="nonzero"/><path fill="#ffffff" d="M 235.710938 151.113281 C 235.710938 151.105469 235.710938 151.105469 235.710938 151.097656 C 235.710938 151.105469 235.710938 151.105469 235.710938 151.113281 Z M 210.800781 143.71875 L 210.800781 143.710938 Z M 178.234375 182.074219 C 178.234375 182.058594 178.242188 182.050781 178.25 182.042969 C 178.242188 182.050781 178.234375 182.058594 178.234375 182.074219 Z M 149.117188 149.746094 C 149.125 149.761719 149.132812 149.769531 149.132812 149.777344 C 149.132812 149.769531 149.125 149.761719 149.117188 149.746094 Z M 242.210938 151.550781 C 242.324219 150.066406 241.472656 148.664062 240.101562 148.070312 C 238.742188 147.480469 237.136719 147.816406 236.125 148.902344 L 219.058594 167.246094 L 211.667969 141.121094 C 211.285156 139.792969 210.164062 138.816406 208.792969 138.609375 C 207.425781 138.402344 206.074219 139.03125 205.324219 140.183594 L 180.503906 178.558594 L 154.214844 145.699219 C 153.394531 144.667969 152.074219 144.171875 150.792969 144.417969 C 149.496094 144.667969 148.460938 145.605469 148.082031 146.867188 L 140.707031 171.453125 L 118.699219 156.558594 C 119.558594 159.972656 120.648438 163.351562 122 166.664062 L 140.433594 179.132812 C 141.359375 179.761719 142.527344 179.902344 143.578125 179.539062 C 144.636719 179.164062 145.449219 178.296875 145.773438 177.230469 L 152.679688 154.214844 L 178.019531 185.882812 C 178.726562 186.765625 179.835938 187.25 180.957031 187.195312 C 182.078125 187.128906 183.121094 186.527344 183.71875 185.589844 L 207.203125 149.277344 L 214.246094 174.15625 C 214.585938 175.371094 215.566406 176.308594 216.796875 176.605469 C 218.03125 176.90625 219.328125 176.515625 220.203125 175.578125 L 235.128906 159.535156 L 233.507812 183.480469 C 233.425781 184.707031 234.007812 185.898438 235.019531 186.597656 C 235.605469 187.011719 236.308594 187.21875 237.015625 187.21875 C 237.515625 187.21875 238.011719 187.113281 238.480469 186.90625 L 249.09375 182.074219 C 250.875 178.941406 252.554688 175.792969 254.121094 172.628906 L 240.347656 178.894531 L 242.210938 151.550781 " fill-opacity="1" fill-rule="nonzero"/><path fill="#ffffff" d="M 117.632812 155.835938 L 113.972656 161.226562 L 122 166.664062 C 120.648438 163.351562 119.558594 159.972656 118.699219 156.558594 L 117.632812 155.835938 " fill-opacity="1" fill-rule="nonzero"/><path fill="#ffffff" d="M 257.894531 178.058594 L 255.1875 172.136719 L 254.121094 172.628906 C 252.554688 175.792969 250.875 178.941406 249.09375 182.074219 L 257.894531 178.058594 " fill-opacity="1" fill-rule="nonzero"/><path fill="#ffffff" d="M 157.589844 100.460938 L 157.574219 100.445312 Z M 205.714844 83.796875 C 205.707031 83.796875 205.707031 83.796875 205.707031 83.796875 C 205.707031 83.796875 205.707031 83.796875 205.714844 83.796875 Z M 155.71875 106.183594 C 156.648438 106.144531 157.539062 105.722656 158.167969 105.03125 L 172.15625 89.65625 L 190.398438 105.328125 C 191.164062 105.980469 192.160156 106.265625 193.144531 106.136719 C 194.132812 106.011719 195.023438 105.460938 195.578125 104.644531 L 208.253906 86.199219 L 228.453125 105.246094 C 229.132812 105.875 230 106.195312 230.867188 106.195312 C 231.734375 106.195312 232.609375 105.867188 233.292969 105.222656 L 246.269531 92.859375 C 244.90625 91.144531 243.453125 89.527344 241.964844 87.960938 L 230.847656 98.546875 L 210.1875 79.058594 C 209.4375 78.351562 208.414062 78.015625 207.394531 78.121094 C 206.367188 78.222656 205.445312 78.78125 204.863281 79.628906 L 192.101562 98.203125 L 174.183594 82.8125 C 172.738281 81.585938 170.597656 81.714844 169.292969 83.121094 L 155.375 98.425781 L 140.292969 84.582031 C 138.691406 86.046875 137.140625 87.574219 135.667969 89.1875 L 153.179688 105.246094 C 153.863281 105.890625 154.75 106.21875 155.71875 106.183594 " fill-opacity="1" fill-rule="nonzero"/><path fill="#ffffff" d="M 140.292969 84.582031 L 137.699219 82.207031 L 133.289062 87 L 135.667969 89.1875 C 137.140625 87.574219 138.691406 86.046875 140.292969 84.582031 " fill-opacity="1" fill-rule="nonzero"/><path fill="#ffffff" d="M 248.789062 90.453125 L 244.296875 85.738281 L 241.964844 87.960938 C 243.453125 89.527344 244.90625 91.144531 246.269531 92.859375 L 248.789062 90.453125 " fill-opacity="1" fill-rule="nonzero"/></svg>