<svg xmlns="http://www.w3.org/2000/svg" xmlns:xlink="http://www.w3.org/1999/xlink" width="3000" zoomAndPan="magnify" viewBox="0 0 2250 374.999991" height="500" preserveAspectRatio="xMidYMid meet" version="1.0"><defs><g/></defs><path fill="#ffffff" d="M 347.097656 276.660156 L 347.097656 109.371094 L 420.308594 109.371094 C 428.128906 109.371094 435.460938 110.964844 442.316406 114.152344 C 449.175781 117.332031 455.199219 121.667969 460.386719 127.167969 C 465.570312 132.664062 469.640625 139.078125 472.59375 146.410156 C 475.542969 153.734375 477.019531 161.617188 477.019531 170.066406 C 477.019531 176.441406 476.140625 182.496094 474.386719 188.234375 C 472.632812 193.972656 470.117188 199.152344 466.847656 203.773438 C 463.578125 208.386719 459.707031 212.445312 455.238281 215.953125 C 450.777344 219.457031 445.917969 222.246094 440.652344 224.320312 L 476.539062 276.660156 L 431.320312 276.660156 L 398.304688 227.90625 L 384.183594 227.90625 L 384.183594 276.660156 Z M 420.308594 190.625 C 425.574219 190.625 430.042969 188.992188 433.710938 185.722656 C 437.382812 182.457031 439.21875 177.476562 439.21875 170.78125 C 439.21875 167.433594 438.738281 164.335938 437.78125 161.472656 C 436.824219 158.601562 435.46875 156.09375 433.710938 153.941406 C 431.957031 151.789062 429.960938 150.117188 427.730469 148.921875 C 425.496094 147.726562 423.023438 147.128906 420.308594 147.128906 L 384.183594 147.128906 L 384.183594 190.625 Z M 420.308594 190.625 " fill-opacity="1" fill-rule="nonzero"/><path fill="#ffffff" d="M 564.582031 142.824219 C 573.996094 142.824219 582.855469 144.617188 591.152344 148.203125 C 599.449219 151.789062 606.660156 156.652344 612.796875 162.785156 C 618.941406 168.917969 623.808594 176.121094 627.398438 184.410156 C 630.988281 192.695312 632.78125 201.539062 632.78125 210.929688 C 632.78125 220.335938 630.988281 229.179688 627.398438 237.46875 C 623.808594 245.753906 618.941406 253.007812 612.796875 259.222656 C 606.660156 265.429688 599.449219 270.324219 591.152344 273.910156 C 582.855469 277.496094 573.996094 279.289062 564.582031 279.289062 C 555.175781 279.289062 546.328125 277.496094 538.03125 273.910156 C 529.734375 270.324219 522.472656 265.429688 516.25 259.222656 C 510.035156 253.007812 505.132812 245.753906 501.542969 237.46875 C 497.953125 229.179688 496.160156 220.335938 496.160156 210.929688 C 496.160156 201.539062 497.953125 192.695312 501.542969 184.410156 C 505.132812 176.121094 510.035156 168.917969 516.25 162.785156 C 522.472656 156.652344 529.734375 151.789062 538.03125 148.203125 C 546.328125 144.617188 555.175781 142.824219 564.582031 142.824219 Z M 532.046875 210.929688 C 532.046875 215.394531 532.882812 219.617188 534.558594 223.601562 C 536.234375 227.585938 538.550781 231.050781 541.5 234 C 544.453125 236.949219 547.921875 239.261719 551.910156 240.933594 C 555.902344 242.605469 560.121094 243.445312 564.582031 243.445312 C 569.050781 243.445312 573.238281 242.605469 577.148438 240.933594 C 581.058594 239.261719 584.488281 236.949219 587.441406 234 C 590.394531 231.050781 592.707031 227.585938 594.382812 223.601562 C 596.058594 219.617188 596.894531 215.394531 596.894531 210.929688 C 596.894531 206.480469 596.058594 202.296875 594.382812 198.394531 C 592.707031 194.488281 590.394531 191.0625 587.441406 188.113281 C 584.488281 185.164062 581.058594 182.855469 577.148438 181.179688 C 573.238281 179.507812 569.050781 178.671875 564.582031 178.671875 C 560.121094 178.671875 555.902344 179.507812 551.910156 181.179688 C 547.921875 182.855469 544.453125 185.164062 541.5 188.113281 C 538.550781 191.0625 536.234375 194.488281 534.558594 198.394531 C 532.882812 202.296875 532.046875 206.480469 532.046875 210.929688 Z M 532.046875 210.929688 " fill-opacity="1" fill-rule="nonzero"/><path fill="#ffffff" d="M 717.953125 142.824219 C 729.601562 142.824219 740.375 145.535156 750.265625 150.953125 L 750.265625 145.214844 L 786.152344 145.214844 L 786.152344 276.660156 L 750.265625 276.660156 L 750.265625 271.160156 C 740.375 276.582031 729.601562 279.289062 717.953125 279.289062 C 708.546875 279.289062 699.699219 277.496094 691.402344 273.910156 C 683.105469 270.324219 675.84375 265.429688 669.621094 259.222656 C 663.40625 253.007812 658.503906 245.753906 654.914062 237.46875 C 651.324219 229.179688 649.53125 220.335938 649.53125 210.929688 C 649.53125 201.539062 651.324219 192.695312 654.914062 184.410156 C 658.503906 176.121094 663.40625 168.917969 669.621094 162.785156 C 675.84375 156.652344 683.105469 151.789062 691.402344 148.203125 C 699.699219 144.617188 708.546875 142.824219 717.953125 142.824219 Z M 717.953125 243.445312 C 722.421875 243.445312 726.609375 242.605469 730.519531 240.933594 C 734.429688 239.261719 737.859375 236.949219 740.8125 234 C 743.765625 231.050781 746.078125 227.585938 747.753906 223.601562 C 749.429688 219.617188 750.265625 215.394531 750.265625 210.929688 C 750.265625 206.480469 749.429688 202.296875 747.753906 198.394531 C 746.078125 194.488281 743.765625 191.0625 740.8125 188.113281 C 737.859375 185.164062 734.429688 182.855469 730.519531 181.179688 C 726.609375 179.507812 722.421875 178.671875 717.953125 178.671875 C 713.492188 178.671875 709.273438 179.507812 705.28125 181.179688 C 701.292969 182.855469 697.824219 185.164062 694.871094 188.113281 C 691.917969 191.0625 689.605469 194.488281 687.929688 198.394531 C 686.253906 202.296875 685.417969 206.480469 685.417969 210.929688 C 685.417969 215.394531 686.253906 219.617188 687.929688 223.601562 C 689.605469 227.585938 691.917969 231.050781 694.871094 234 C 697.824219 236.949219 701.292969 239.261719 705.28125 240.933594 C 709.273438 242.605469 713.492188 243.445312 717.953125 243.445312 Z M 717.953125 243.445312 " fill-opacity="1" fill-rule="nonzero"/><path fill="#ffffff" d="M 817.257812 145.214844 L 853.148438 145.214844 L 853.148438 148.324219 C 860.804688 144.65625 868.777344 142.824219 877.066406 142.824219 C 885.207031 142.824219 892.863281 144.5 900.042969 147.84375 C 907.226562 151.191406 913.527344 155.890625 918.953125 161.9375 C 924.367188 155.890625 930.667969 151.191406 937.847656 147.84375 C 945.027344 144.5 952.6875 142.824219 960.824219 142.824219 C 969.113281 142.824219 976.886719 144.578125 984.148438 148.085938 C 991.40625 151.589844 997.75 156.371094 1003.175781 162.429688 C 1008.597656 168.476562 1012.902344 175.5625 1016.085938 183.691406 C 1019.277344 191.820312 1020.871094 200.503906 1020.871094 209.734375 L 1020.871094 276.660156 L 984.984375 276.660156 L 984.984375 209.734375 C 984.984375 204.644531 984.304688 200.148438 982.949219 196.242188 C 981.59375 192.335938 979.757812 189.109375 977.445312 186.558594 C 975.132812 184.011719 972.539062 182.097656 969.667969 180.824219 C 966.800781 179.546875 963.855469 178.910156 960.824219 178.910156 C 956.675781 178.910156 953.085938 179.828125 950.054688 181.660156 C 947.023438 183.492188 944.550781 185.882812 942.632812 188.832031 C 940.71875 191.78125 939.285156 195.085938 938.324219 198.753906 C 937.367188 202.417969 936.890625 206.082031 936.890625 209.734375 L 936.890625 276.660156 L 901.003906 276.660156 L 901.003906 209.734375 C 901.003906 206.082031 900.523438 202.457031 899.566406 198.871094 C 898.609375 195.285156 897.171875 191.980469 895.257812 188.949219 C 893.34375 185.921875 890.871094 183.492188 887.839844 181.660156 C 884.804688 179.828125 881.214844 178.910156 877.066406 178.910156 C 874.042969 178.910156 871.097656 179.546875 868.226562 180.824219 C 865.351562 182.097656 862.800781 184.011719 860.566406 186.558594 C 858.332031 189.109375 856.539062 192.335938 855.179688 196.242188 C 853.824219 200.148438 853.148438 204.644531 853.148438 209.734375 L 853.148438 276.660156 L 817.257812 276.660156 Z M 817.257812 145.214844 " fill-opacity="1" fill-rule="nonzero"/><path fill="#ffffff" d="M 1054.136719 145.214844 L 1090.023438 145.214844 L 1090.023438 276.660156 L 1054.136719 276.660156 Z M 1050.785156 110.074219 C 1050.785156 104.1875 1052.851562 99.167969 1056.996094 95.027344 C 1061.144531 90.882812 1066.171875 88.808594 1072.074219 88.808594 C 1077.976562 88.808594 1083.003906 90.882812 1087.152344 95.027344 C 1091.300781 99.167969 1093.375 104.1875 1093.375 110.074219 C 1093.375 115.96875 1091.300781 120.992188 1087.152344 125.132812 C 1083.003906 129.277344 1077.976562 131.351562 1072.074219 131.351562 C 1066.171875 131.351562 1061.144531 129.277344 1056.996094 125.132812 C 1052.851562 120.992188 1050.785156 115.96875 1050.785156 110.074219 Z M 1050.785156 110.074219 " fill-opacity="1" fill-rule="nonzero"/><path fill="#ffffff" d="M 1185.726562 142.824219 C 1195.140625 142.824219 1203.996094 144.617188 1212.292969 148.203125 C 1220.589844 151.789062 1227.800781 156.652344 1233.9375 162.785156 C 1240.082031 168.917969 1244.949219 176.121094 1248.539062 184.410156 C 1252.128906 192.695312 1253.925781 201.539062 1253.925781 210.929688 C 1253.925781 220.335938 1252.128906 229.179688 1248.539062 237.46875 C 1244.949219 245.753906 1240.082031 253.007812 1233.9375 259.222656 C 1227.800781 265.429688 1220.589844 270.324219 1212.292969 273.910156 C 1203.996094 277.496094 1195.140625 279.289062 1185.726562 279.289062 C 1176.316406 279.289062 1167.46875 277.496094 1159.171875 273.910156 C 1150.875 270.324219 1143.613281 265.429688 1137.390625 259.222656 C 1131.175781 253.007812 1126.273438 245.753906 1122.683594 237.46875 C 1119.09375 229.179688 1117.300781 220.335938 1117.300781 210.929688 C 1117.300781 201.539062 1119.09375 192.695312 1122.683594 184.410156 C 1126.273438 176.121094 1131.175781 168.917969 1137.390625 162.785156 C 1143.613281 156.652344 1150.875 151.789062 1159.171875 148.203125 C 1167.46875 144.617188 1176.316406 142.824219 1185.726562 142.824219 Z M 1153.1875 210.929688 C 1153.1875 215.394531 1154.023438 219.617188 1155.699219 223.601562 C 1157.375 227.585938 1159.691406 231.050781 1162.640625 234 C 1165.59375 236.949219 1169.0625 239.261719 1173.054688 240.933594 C 1177.042969 242.605469 1181.265625 243.445312 1185.726562 243.445312 C 1190.191406 243.445312 1194.382812 242.605469 1198.289062 240.933594 C 1202.199219 239.261719 1205.628906 236.949219 1208.582031 234 C 1211.535156 231.050781 1213.847656 227.585938 1215.523438 223.601562 C 1217.199219 219.617188 1218.035156 215.394531 1218.035156 210.929688 C 1218.035156 206.480469 1217.199219 202.296875 1215.523438 198.394531 C 1213.847656 194.488281 1211.535156 191.0625 1208.582031 188.113281 C 1205.628906 185.164062 1202.199219 182.855469 1198.289062 181.179688 C 1194.382812 179.507812 1190.191406 178.671875 1185.726562 178.671875 C 1181.265625 178.671875 1177.042969 179.507812 1173.054688 181.179688 C 1169.0625 182.855469 1165.59375 185.164062 1162.640625 188.113281 C 1159.691406 191.0625 1157.375 194.488281 1155.699219 198.394531 C 1154.023438 202.296875 1153.1875 206.480469 1153.1875 210.929688 Z M 1153.1875 210.929688 " fill-opacity="1" fill-rule="nonzero"/><path fill="#ff914d" d="M 41.550781 119.960938 C 59.683594 85.953125 97.207031 63.332031 136.601562 58.703125 C 167.113281 55.113281 198.753906 60.917969 229.035156 76.304688 C 317.261719 125.847656 299.628906 223.617188 291.414062 255.359375 C 275.796875 315.726562 183.707031 326.058594 118.871094 324.949219 C 33.933594 323.480469 -0.0351562 197.921875 41.550781 119.960938 " fill-opacity="1" fill-rule="nonzero"/><path fill="#ff914d" d="M 209.578125 112.664062 L 198.535156 123.171875 C 197.953125 123.71875 197.210938 124 196.472656 124 C 195.734375 124 194.996094 123.726562 194.417969 123.191406 L 177.226562 107.003906 L 166.441406 122.679688 C 165.96875 123.375 165.210938 123.84375 164.371094 123.949219 C 163.53125 124.058594 162.683594 123.816406 162.035156 123.261719 L 146.507812 109.941406 L 134.605469 123.007812 C 134.070312 123.597656 133.3125 123.957031 132.519531 123.988281 C 131.695312 124.019531 130.941406 123.738281 130.359375 123.191406 L 115.457031 109.542969 C 112.839844 112.425781 110.460938 115.585938 108.378906 118.988281 C 99.488281 133.539062 96.988281 150.710938 101.019531 166.808594 L 119.746094 179.46875 L 126.023438 158.570312 C 126.34375 157.496094 127.226562 156.699219 128.328125 156.488281 C 129.417969 156.277344 130.542969 156.699219 131.242188 157.578125 L 153.613281 185.507812 L 174.734375 152.890625 C 175.375 151.910156 176.523438 151.375 177.6875 151.550781 C 178.855469 151.726562 179.808594 152.558594 180.132812 153.6875 L 186.421875 175.890625 L 200.945312 160.300781 C 201.808594 159.375 203.171875 159.089844 204.332031 159.59375 C 205.496094 160.097656 206.222656 161.289062 206.125 162.550781 L 204.539062 185.792969 L 216.261719 180.46875 C 216.535156 179.917969 216.804688 179.386719 217.066406 178.84375 C 226.308594 159.644531 225.167969 137.289062 214.035156 119.039062 C 212.675781 116.800781 211.179688 114.679688 209.578125 112.664062 " fill-opacity="1" fill-rule="nonzero"/><path fill="#ffffff" d="M 217.066406 178.84375 C 216.804688 179.386719 216.535156 179.917969 216.261719 180.46875 L 217.167969 180.050781 L 219.472656 185.082031 L 211.984375 188.496094 C 208.496094 194.59375 204.539062 200.613281 200.136719 206.464844 C 177.585938 236.503906 169.3125 249.800781 166.890625 253.933594 L 155.476562 253.933594 C 153.125 249.925781 145.15625 237.207031 122.230469 206.472656 C 115.527344 197.496094 109.832031 188.171875 105.308594 178.75 C 104.78125 177.640625 104.296875 176.519531 103.828125 175.398438 L 96.996094 170.777344 L 100.109375 166.195312 L 101.019531 166.808594 C 96.988281 150.710938 99.488281 133.539062 108.378906 118.988281 C 110.460938 115.585938 112.839844 112.425781 115.457031 109.542969 L 113.433594 107.683594 L 117.1875 103.609375 L 119.394531 105.628906 C 130.105469 95.789062 144.03125 89.972656 158.933594 89.542969 C 160.425781 89.503906 161.933594 89.503906 163.429688 89.542969 C 179.734375 90.011719 194.875 96.917969 205.917969 108.5 L 207.902344 106.609375 L 211.722656 110.617188 L 209.578125 112.664062 C 211.179688 114.679688 212.675781 116.800781 214.035156 119.039062 C 225.167969 137.289062 226.308594 159.644531 217.066406 178.84375 Z M 163.597656 84.007812 C 161.988281 83.960938 160.363281 83.960938 158.765625 84.007812 C 136.136719 84.652344 115.527344 96.65625 103.644531 116.109375 C 91.523438 135.945312 90.28125 160.253906 100.304688 181.140625 C 104.992188 190.878906 110.867188 200.519531 117.773438 209.78125 C 142.324219 242.679688 149.617188 254.851562 151.074219 257.414062 L 151.074219 256.707031 L 156.625 256.707031 L 156.625 259.472656 L 165.738281 259.472656 L 165.738281 256.707031 L 171.285156 256.707031 L 171.285156 257.417969 C 172.832031 254.703125 180.59375 241.734375 204.578125 209.789062 C 211.5 200.566406 217.382812 190.964844 222.066406 181.238281 C 232.125 160.351562 230.894531 136.011719 218.773438 116.160156 C 206.875 96.675781 186.246094 84.652344 163.597656 84.007812 " fill-opacity="1" fill-rule="nonzero"/><path fill="#ffffff" d="M 156.625 259.472656 L 152.152344 259.472656 L 151.378906 257.960938 C 151.371094 257.945312 151.28125 257.777344 151.074219 257.414062 L 151.074219 265.746094 L 156.625 265.746094 L 156.625 259.472656 " fill-opacity="1" fill-rule="nonzero"/><path fill="#ffffff" d="M 152.152344 259.472656 L 156.625 259.472656 L 156.625 256.707031 L 151.074219 256.707031 L 151.074219 257.414062 C 151.28125 257.777344 151.371094 257.945312 151.378906 257.960938 L 152.152344 259.472656 " fill-opacity="1" fill-rule="nonzero"/><path fill="#ffffff" d="M 170.1875 259.46875 L 168.515625 259.472656 L 165.738281 259.472656 L 165.738281 265.746094 L 171.285156 265.746094 L 171.285156 257.417969 C 171.074219 257.785156 170.972656 257.972656 170.964844 257.988281 L 170.1875 259.46875 " fill-opacity="1" fill-rule="nonzero"/><path fill="#ffffff" d="M 165.738281 256.707031 L 165.738281 259.472656 L 168.515625 259.472656 L 170.1875 259.46875 L 170.964844 257.988281 C 170.972656 257.972656 171.074219 257.785156 171.285156 257.417969 L 171.285156 256.707031 L 165.738281 256.707031 " fill-opacity="1" fill-rule="nonzero"/><path fill="#ffffff" d="M 177.445312 293.183594 L 144.910156 293.183594 L 144.910156 271.28125 L 177.445312 271.28125 Z M 165.738281 268.507812 L 165.738281 265.746094 L 156.625 265.746094 L 156.625 268.507812 L 151.074219 268.507812 L 151.074219 265.746094 L 142.421875 265.746094 C 140.742188 265.746094 139.371094 267.105469 139.371094 268.789062 L 139.371094 295.667969 C 139.371094 297.351562 140.742188 298.71875 142.421875 298.71875 L 179.945312 298.71875 C 181.621094 298.71875 182.988281 297.351562 182.988281 295.667969 L 182.988281 268.789062 C 182.988281 267.105469 181.621094 265.746094 179.945312 265.746094 L 171.285156 265.746094 L 171.285156 268.507812 L 165.738281 268.507812 " fill-opacity="1" fill-rule="nonzero"/><path fill="#ffffff" d="M 156.625 268.507812 L 156.625 265.746094 L 151.074219 265.746094 L 151.074219 268.507812 L 156.625 268.507812 " fill-opacity="1" fill-rule="nonzero"/><path fill="#ffffff" d="M 165.738281 268.507812 L 171.285156 268.507812 L 171.285156 265.746094 L 165.738281 265.746094 L 165.738281 268.507812 " fill-opacity="1" fill-rule="nonzero"/><path fill="#ffffff" d="M 200.59375 162.179688 C 200.59375 162.171875 200.59375 162.171875 200.59375 162.164062 C 200.59375 162.171875 200.59375 162.171875 200.59375 162.179688 Z M 179.394531 155.894531 L 179.394531 155.886719 Z M 151.683594 188.496094 C 151.683594 188.484375 151.6875 188.476562 151.695312 188.46875 C 151.6875 188.476562 151.683594 188.484375 151.683594 188.496094 Z M 126.902344 161.015625 C 126.910156 161.03125 126.917969 161.035156 126.917969 161.042969 C 126.917969 161.035156 126.910156 161.03125 126.902344 161.015625 Z M 206.125 162.550781 C 206.222656 161.289062 205.496094 160.097656 204.332031 159.59375 C 203.171875 159.089844 201.808594 159.375 200.945312 160.300781 L 186.421875 175.890625 L 180.132812 153.6875 C 179.808594 152.558594 178.855469 151.726562 177.6875 151.550781 C 176.523438 151.375 175.375 151.910156 174.734375 152.890625 L 153.613281 185.507812 L 131.242188 157.578125 C 130.542969 156.699219 129.417969 156.277344 128.328125 156.488281 C 127.226562 156.699219 126.34375 157.496094 126.023438 158.570312 L 119.746094 179.46875 L 101.019531 166.808594 C 101.75 169.710938 102.675781 172.582031 103.828125 175.398438 L 119.515625 185.996094 C 120.300781 186.53125 121.296875 186.648438 122.191406 186.339844 C 123.089844 186.023438 123.78125 185.285156 124.058594 184.378906 L 129.933594 164.816406 L 151.5 191.734375 C 152.101562 192.484375 153.042969 192.894531 154 192.847656 C 154.953125 192.792969 155.839844 192.28125 156.347656 191.484375 L 176.335938 160.617188 L 182.328125 181.765625 C 182.617188 182.796875 183.453125 183.59375 184.5 183.847656 C 185.546875 184.101562 186.652344 183.769531 187.398438 182.972656 L 200.097656 169.335938 L 198.71875 189.691406 C 198.648438 190.734375 199.144531 191.746094 200.003906 192.339844 C 200.503906 192.691406 201.101562 192.867188 201.703125 192.867188 C 202.128906 192.867188 202.550781 192.777344 202.949219 192.601562 L 211.984375 188.496094 C 213.5 185.832031 214.929688 183.15625 216.261719 180.46875 L 204.539062 185.792969 L 206.125 162.550781 " fill-opacity="1" fill-rule="nonzero"/><path fill="#ffffff" d="M 100.109375 166.195312 L 96.996094 170.777344 L 103.828125 175.398438 C 102.675781 172.582031 101.75 169.710938 101.019531 166.808594 L 100.109375 166.195312 " fill-opacity="1" fill-rule="nonzero"/><path fill="#ffffff" d="M 219.472656 185.082031 L 217.167969 180.050781 L 216.261719 180.46875 C 214.929688 183.15625 213.5 185.832031 211.984375 188.496094 L 219.472656 185.082031 " fill-opacity="1" fill-rule="nonzero"/><path fill="#ffffff" d="M 134.113281 119.125 L 134.101562 119.113281 Z M 175.066406 104.960938 C 175.0625 104.960938 175.0625 104.960938 175.0625 104.960938 C 175.0625 104.960938 175.0625 104.960938 175.066406 104.960938 Z M 132.519531 123.988281 C 133.3125 123.957031 134.070312 123.597656 134.605469 123.007812 L 146.507812 109.941406 L 162.035156 123.261719 C 162.683594 123.816406 163.53125 124.058594 164.371094 123.949219 C 165.210938 123.84375 165.96875 123.375 166.441406 122.679688 L 177.226562 107.003906 L 194.417969 123.191406 C 194.996094 123.726562 195.734375 124 196.472656 124 C 197.210938 124 197.953125 123.71875 198.535156 123.171875 L 209.578125 112.664062 C 208.417969 111.207031 207.183594 109.832031 205.917969 108.5 L 196.457031 117.496094 L 178.875 100.933594 C 178.234375 100.332031 177.363281 100.046875 176.496094 100.136719 C 175.621094 100.222656 174.839844 100.695312 174.34375 101.417969 L 163.484375 117.207031 L 148.234375 104.125 C 147.003906 103.082031 145.183594 103.191406 144.074219 104.386719 L 132.230469 117.394531 L 119.394531 105.628906 C 118.03125 106.871094 116.710938 108.171875 115.457031 109.542969 L 130.359375 123.191406 C 130.941406 123.738281 131.695312 124.019531 132.519531 123.988281 " fill-opacity="1" fill-rule="nonzero"/><path fill="#ffffff" d="M 119.394531 105.628906 L 117.1875 103.609375 L 113.433594 107.683594 L 115.457031 109.542969 C 116.710938 108.171875 118.03125 106.871094 119.394531 105.628906 " fill-opacity="1" fill-rule="nonzero"/><path fill="#ffffff" d="M 211.722656 110.617188 L 207.902344 106.609375 L 205.917969 108.5 C 207.183594 109.832031 208.417969 111.207031 209.578125 112.664062 L 211.722656 110.617188 " fill-opacity="1" fill-rule="nonzero"/><g fill="#ffffff" fill-opacity="1"><g transform="translate(1311.512304, 251.285341)"><g><path d="M 16.40625 0 L 16.40625 -120.359375 L 25.765625 -120.359375 L 25.765625 0 Z M 96.53125 0 L 96.53125 -120.359375 L 105.875 -120.359375 L 105.875 0 Z M 22.40625 -57.703125 L 22.40625 -66.171875 L 99.875 -66.171875 L 99.875 -57.703125 Z M 22.40625 -57.703125 "/></g></g></g><g fill="#ffffff" fill-opacity="1"><g transform="translate(1433.806811, 251.285341)"><g><path d="M 51 1.765625 C 42.882812 1.765625 35.5625 -0.113281 29.03125 -3.875 C 22.5 -7.644531 17.347656 -12.765625 13.578125 -19.234375 C 9.816406 -25.703125 7.9375 -33 7.9375 -41.125 C 7.9375 -49.238281 9.757812 -56.5 13.40625 -62.90625 C 17.050781 -69.320312 22.082031 -74.410156 28.5 -78.171875 C 34.914062 -81.941406 42.0625 -83.828125 49.9375 -83.828125 C 57.46875 -83.828125 64.085938 -82.148438 69.796875 -78.796875 C 75.503906 -75.441406 79.972656 -70.820312 83.203125 -64.9375 C 86.441406 -59.050781 88.0625 -52.285156 88.0625 -44.640625 C 88.0625 -43.941406 88 -43.03125 87.875 -41.90625 C 87.757812 -40.789062 87.585938 -39.410156 87.359375 -37.765625 L 14.296875 -37.765625 L 14.296875 -45.53125 L 82.234375 -45.53125 L 79.234375 -43.0625 C 79.472656 -49.53125 78.414062 -55.203125 76.0625 -60.078125 C 73.707031 -64.960938 70.289062 -68.757812 65.8125 -71.46875 C 61.34375 -74.175781 55.992188 -75.53125 49.765625 -75.53125 C 43.296875 -75.53125 37.585938 -74.085938 32.640625 -71.203125 C 27.703125 -68.316406 23.847656 -64.34375 21.078125 -59.28125 C 18.316406 -54.226562 16.9375 -48.347656 16.9375 -41.640625 C 16.9375 -34.585938 18.378906 -28.441406 21.265625 -23.203125 C 24.148438 -17.972656 28.179688 -13.914062 33.359375 -11.03125 C 38.535156 -8.144531 44.59375 -6.703125 51.53125 -6.703125 C 56.820312 -6.703125 61.734375 -7.671875 66.265625 -9.609375 C 70.796875 -11.554688 74.585938 -14.472656 77.640625 -18.359375 L 83.640625 -12.53125 C 79.878906 -8.0625 75.144531 -4.5625 69.4375 -2.03125 C 63.726562 0.5 57.582031 1.765625 51 1.765625 Z M 51 1.765625 "/></g></g></g><g fill="#ffffff" fill-opacity="1"><g transform="translate(1529.101218, 251.285341)"><g><path d="M 13.234375 0 L 13.234375 -123.875 L 22.234375 -123.875 L 22.234375 0 Z M 13.234375 0 "/></g></g></g><g fill="#ffffff" fill-opacity="1"><g transform="translate(1564.571926, 251.285341)"><g><path d="M 54.875 1.765625 C 48.757812 1.765625 43.144531 0.53125 38.03125 -1.9375 C 32.914062 -4.40625 28.648438 -7.84375 25.234375 -12.25 C 21.828125 -16.664062 19.59375 -21.816406 18.53125 -27.703125 L 18.53125 -54.53125 C 19.59375 -60.53125 21.859375 -65.734375 25.328125 -70.140625 C 28.796875 -74.554688 33.085938 -77.941406 38.203125 -80.296875 C 43.316406 -82.648438 48.875 -83.828125 54.875 -83.828125 C 62.644531 -83.828125 69.585938 -81.941406 75.703125 -78.171875 C 81.816406 -74.410156 86.640625 -69.289062 90.171875 -62.8125 C 93.703125 -56.34375 95.46875 -49.050781 95.46875 -40.9375 C 95.46875 -32.820312 93.703125 -25.554688 90.171875 -19.140625 C 86.640625 -12.734375 81.816406 -7.644531 75.703125 -3.875 C 69.585938 -0.113281 62.644531 1.765625 54.875 1.765625 Z M 13.234375 34.765625 L 13.234375 -82.0625 L 22.234375 -82.0625 L 22.234375 -61.59375 L 20.125 -41.640625 L 22.234375 -21.53125 L 22.234375 34.765625 Z M 53.296875 -6.703125 C 59.765625 -6.703125 65.46875 -8.171875 70.40625 -11.109375 C 75.351562 -14.054688 79.238281 -18.117188 82.0625 -23.296875 C 84.882812 -28.472656 86.296875 -34.414062 86.296875 -41.125 C 86.296875 -47.820312 84.882812 -53.757812 82.0625 -58.9375 C 79.238281 -64.113281 75.382812 -68.144531 70.5 -71.03125 C 65.613281 -73.914062 60.054688 -75.359375 53.828125 -75.359375 C 47.472656 -75.359375 41.910156 -73.914062 37.140625 -71.03125 C 32.378906 -68.144531 28.644531 -64.113281 25.9375 -58.9375 C 23.226562 -53.757812 21.875 -47.757812 21.875 -40.9375 C 21.875 -34.226562 23.195312 -28.316406 25.84375 -23.203125 C 28.5 -18.085938 32.207031 -14.054688 36.96875 -11.109375 C 41.738281 -8.171875 47.179688 -6.703125 53.296875 -6.703125 Z M 53.296875 -6.703125 "/></g></g></g><g fill="#ffffff" fill-opacity="1"><g transform="translate(1668.160451, 251.285341)"><g/></g></g><g fill="#ffffff" fill-opacity="1"><g transform="translate(1707.513502, 251.285341)"><g><path d="M 70.9375 1.765625 C 62.351562 1.765625 54.382812 0.175781 47.03125 -3 C 39.675781 -6.175781 33.265625 -10.585938 27.796875 -16.234375 C 22.328125 -21.878906 18.09375 -28.46875 15.09375 -36 C 12.09375 -43.53125 10.59375 -51.648438 10.59375 -60.359375 C 10.59375 -69.054688 12.0625 -77.140625 15 -84.609375 C 17.9375 -92.085938 22.140625 -98.617188 27.609375 -104.203125 C 33.085938 -109.796875 39.441406 -114.175781 46.671875 -117.34375 C 53.910156 -120.519531 61.820312 -122.109375 70.40625 -122.109375 C 79.351562 -122.109375 87.5 -120.460938 94.84375 -117.171875 C 102.195312 -113.878906 108.640625 -109.351562 114.171875 -103.59375 L 107.640625 -97.0625 C 103.171875 -102.113281 97.757812 -106.050781 91.40625 -108.875 C 85.050781 -111.695312 78.050781 -113.109375 70.40625 -113.109375 C 63.226562 -113.109375 56.582031 -111.785156 50.46875 -109.140625 C 44.351562 -106.492188 39.03125 -102.785156 34.5 -98.015625 C 29.96875 -93.253906 26.46875 -87.664062 24 -81.25 C 21.53125 -74.84375 20.296875 -67.878906 20.296875 -60.359375 C 20.296875 -52.828125 21.554688 -45.820312 24.078125 -39.34375 C 26.609375 -32.875 30.109375 -27.226562 34.578125 -22.40625 C 39.054688 -17.582031 44.382812 -13.847656 50.5625 -11.203125 C 56.738281 -8.554688 63.414062 -7.234375 70.59375 -7.234375 C 78.46875 -7.234375 85.640625 -8.671875 92.109375 -11.546875 C 98.585938 -14.429688 104.0625 -18.40625 108.53125 -23.46875 L 115.0625 -17.125 C 109.644531 -11.238281 103.203125 -6.617188 95.734375 -3.265625 C 88.265625 0.0859375 80 1.765625 70.9375 1.765625 Z M 70.9375 1.765625 "/></g></g></g><g fill="#ffffff" fill-opacity="1"><g transform="translate(1830.690345, 251.285341)"><g><path d="M 51 1.765625 C 42.882812 1.765625 35.5625 -0.113281 29.03125 -3.875 C 22.5 -7.644531 17.347656 -12.765625 13.578125 -19.234375 C 9.816406 -25.703125 7.9375 -33 7.9375 -41.125 C 7.9375 -49.238281 9.757812 -56.5 13.40625 -62.90625 C 17.050781 -69.320312 22.082031 -74.410156 28.5 -78.171875 C 34.914062 -81.941406 42.0625 -83.828125 49.9375 -83.828125 C 57.46875 -83.828125 64.085938 -82.148438 69.796875 -78.796875 C 75.503906 -75.441406 79.972656 -70.820312 83.203125 -64.9375 C 86.441406 -59.050781 88.0625 -52.285156 88.0625 -44.640625 C 88.0625 -43.941406 88 -43.03125 87.875 -41.90625 C 87.757812 -40.789062 87.585938 -39.410156 87.359375 -37.765625 L 14.296875 -37.765625 L 14.296875 -45.53125 L 82.234375 -45.53125 L 79.234375 -43.0625 C 79.472656 -49.53125 78.414062 -55.203125 76.0625 -60.078125 C 73.707031 -64.960938 70.289062 -68.757812 65.8125 -71.46875 C 61.34375 -74.175781 55.992188 -75.53125 49.765625 -75.53125 C 43.296875 -75.53125 37.585938 -74.085938 32.640625 -71.203125 C 27.703125 -68.316406 23.847656 -64.34375 21.078125 -59.28125 C 18.316406 -54.226562 16.9375 -48.347656 16.9375 -41.640625 C 16.9375 -34.585938 18.378906 -28.441406 21.265625 -23.203125 C 24.148438 -17.972656 28.179688 -13.914062 33.359375 -11.03125 C 38.535156 -8.144531 44.59375 -6.703125 51.53125 -6.703125 C 56.820312 -6.703125 61.734375 -7.671875 66.265625 -9.609375 C 70.796875 -11.554688 74.585938 -14.472656 77.640625 -18.359375 L 83.640625 -12.53125 C 79.878906 -8.0625 75.144531 -4.5625 69.4375 -2.03125 C 63.726562 0.5 57.582031 1.765625 51 1.765625 Z M 51 1.765625 "/></g></g></g><g fill="#ffffff" fill-opacity="1"><g transform="translate(1925.98474, 251.285341)"><g><path d="M 75 0 L 75 -48.703125 C 75 -56.703125 72.644531 -63.171875 67.9375 -68.109375 C 63.226562 -73.054688 56.992188 -75.53125 49.234375 -75.53125 C 43.941406 -75.53125 39.265625 -74.378906 35.203125 -72.078125 C 31.148438 -69.785156 27.972656 -66.640625 25.671875 -62.640625 C 23.378906 -58.640625 22.234375 -53.992188 22.234375 -48.703125 L 17.640625 -51.359375 C 17.640625 -57.585938 19.109375 -63.144531 22.046875 -68.03125 C 24.992188 -72.914062 28.992188 -76.769531 34.046875 -79.59375 C 39.109375 -82.414062 44.878906 -83.828125 51.359375 -83.828125 C 57.828125 -83.828125 63.5 -82.328125 68.375 -79.328125 C 73.257812 -76.328125 77.054688 -72.238281 79.765625 -67.0625 C 82.472656 -61.882812 83.828125 -56.117188 83.828125 -49.765625 L 83.828125 0 Z M 13.234375 0 L 13.234375 -82.0625 L 22.234375 -82.0625 L 22.234375 0 Z M 13.234375 0 "/></g></g></g><g fill="#ffffff" fill-opacity="1"><g transform="translate(2021.455662, 251.285341)"><g><path d="M 26.125 0 L 26.125 -116.828125 L 35.125 -116.828125 L 35.125 0 Z M 4.9375 -74.109375 L 4.9375 -82.0625 L 56.296875 -82.0625 L 56.296875 -74.109375 Z M 4.9375 -74.109375 "/></g></g></g><g fill="#ffffff" fill-opacity="1"><g transform="translate(2082.691116, 251.285341)"><g><path d="M 51 1.765625 C 42.882812 1.765625 35.5625 -0.113281 29.03125 -3.875 C 22.5 -7.644531 17.347656 -12.765625 13.578125 -19.234375 C 9.816406 -25.703125 7.9375 -33 7.9375 -41.125 C 7.9375 -49.238281 9.757812 -56.5 13.40625 -62.90625 C 17.050781 -69.320312 22.082031 -74.410156 28.5 -78.171875 C 34.914062 -81.941406 42.0625 -83.828125 49.9375 -83.828125 C 57.46875 -83.828125 64.085938 -82.148438 69.796875 -78.796875 C 75.503906 -75.441406 79.972656 -70.820312 83.203125 -64.9375 C 86.441406 -59.050781 88.0625 -52.285156 88.0625 -44.640625 C 88.0625 -43.941406 88 -43.03125 87.875 -41.90625 C 87.757812 -40.789062 87.585938 -39.410156 87.359375 -37.765625 L 14.296875 -37.765625 L 14.296875 -45.53125 L 82.234375 -45.53125 L 79.234375 -43.0625 C 79.472656 -49.53125 78.414062 -55.203125 76.0625 -60.078125 C 73.707031 -64.960938 70.289062 -68.757812 65.8125 -71.46875 C 61.34375 -74.175781 55.992188 -75.53125 49.765625 -75.53125 C 43.296875 -75.53125 37.585938 -74.085938 32.640625 -71.203125 C 27.703125 -68.316406 23.847656 -64.34375 21.078125 -59.28125 C 18.316406 -54.226562 16.9375 -48.347656 16.9375 -41.640625 C 16.9375 -34.585938 18.378906 -28.441406 21.265625 -23.203125 C 24.148438 -17.972656 28.179688 -13.914062 33.359375 -11.03125 C 38.535156 -8.144531 44.59375 -6.703125 51.53125 -6.703125 C 56.820312 -6.703125 61.734375 -7.671875 66.265625 -9.609375 C 70.796875 -11.554688 74.585938 -14.472656 77.640625 -18.359375 L 83.640625 -12.53125 C 79.878906 -8.0625 75.144531 -4.5625 69.4375 -2.03125 C 63.726562 0.5 57.582031 1.765625 51 1.765625 Z M 51 1.765625 "/></g></g></g><g fill="#ffffff" fill-opacity="1"><g transform="translate(2177.98555, 251.285341)"><g><path d="M 13.234375 0 L 13.234375 -82.0625 L 22.234375 -82.0625 L 22.234375 0 Z M 22.234375 -49.0625 L 17.828125 -50.640625 C 17.828125 -61.117188 20.472656 -69.269531 25.765625 -75.09375 C 31.054688 -80.914062 38 -83.828125 46.59375 -83.828125 C 50.59375 -83.828125 54.328125 -83.117188 57.796875 -81.703125 C 61.265625 -80.296875 64.46875 -78.003906 67.40625 -74.828125 L 61.40625 -68.46875 C 59.175781 -70.9375 56.765625 -72.703125 54.171875 -73.765625 C 51.585938 -74.828125 48.53125 -75.359375 45 -75.359375 C 38.289062 -75.359375 32.816406 -73.09375 28.578125 -68.5625 C 24.347656 -64.03125 22.234375 -57.53125 22.234375 -49.0625 Z M 22.234375 -49.0625 "/></g></g></g></svg>