<svg xmlns="http://www.w3.org/2000/svg" xmlns:xlink="http://www.w3.org/1999/xlink" width="2000" zoomAndPan="magnify" viewBox="0 0 1500 374.999991" height="500" preserveAspectRatio="xMidYMid meet" version="1.0"><defs><g/></defs><g fill="#ffffff" fill-opacity="1"><g transform="translate(388.515081, 284.145582)"><g><path d="M 19.703125 0 L 19.703125 -196.984375 L 105.8125 -196.984375 C 115 -196.984375 123.625 -195.109375 131.6875 -191.359375 C 139.757812 -187.609375 146.84375 -182.492188 152.9375 -176.015625 C 159.039062 -169.546875 163.828125 -161.992188 167.296875 -153.359375 C 170.765625 -144.734375 172.5 -135.445312 172.5 -125.5 C 172.5 -118 171.46875 -110.867188 169.40625 -104.109375 C 167.34375 -97.359375 164.382812 -91.265625 160.53125 -85.828125 C 156.6875 -80.390625 152.140625 -75.601562 146.890625 -71.46875 C 141.640625 -67.34375 135.921875 -64.0625 129.734375 -61.625 L 171.9375 0 L 118.75 0 L 79.921875 -57.40625 L 63.3125 -57.40625 L 63.3125 0 Z M 105.8125 -101.3125 C 112 -101.3125 117.25 -103.234375 121.5625 -107.078125 C 125.882812 -110.921875 128.046875 -116.78125 128.046875 -124.65625 C 128.046875 -128.601562 127.476562 -132.265625 126.34375 -135.640625 C 125.21875 -139.015625 123.625 -141.96875 121.5625 -144.5 C 119.5 -147.03125 117.15625 -149 114.53125 -150.40625 C 111.90625 -151.8125 109 -152.515625 105.8125 -152.515625 L 63.3125 -152.515625 L 63.3125 -101.3125 Z M 105.8125 -101.3125 "/></g></g></g><g fill="#ffffff" fill-opacity="1"><g transform="translate(573.681647, 284.145582)"><g><path d="M 90.328125 -157.59375 C 101.398438 -157.59375 111.8125 -155.476562 121.5625 -151.25 C 131.320312 -147.03125 139.8125 -141.304688 147.03125 -134.078125 C 154.257812 -126.859375 159.984375 -118.367188 164.203125 -108.609375 C 168.421875 -98.859375 170.53125 -88.453125 170.53125 -77.390625 C 170.53125 -66.316406 168.421875 -55.898438 164.203125 -46.140625 C 159.984375 -36.390625 154.257812 -27.851562 147.03125 -20.53125 C 139.8125 -13.21875 131.320312 -7.453125 121.5625 -3.234375 C 111.8125 0.984375 101.398438 3.09375 90.328125 3.09375 C 79.265625 3.09375 68.851562 0.984375 59.09375 -3.234375 C 49.34375 -7.453125 40.804688 -13.21875 33.484375 -20.53125 C 26.171875 -27.851562 20.398438 -36.390625 16.171875 -46.140625 C 11.953125 -55.898438 9.84375 -66.316406 9.84375 -77.390625 C 9.84375 -88.453125 11.953125 -98.859375 16.171875 -108.609375 C 20.398438 -118.367188 26.171875 -126.859375 33.484375 -134.078125 C 40.804688 -141.304688 49.34375 -147.03125 59.09375 -151.25 C 68.851562 -155.476562 79.265625 -157.59375 90.328125 -157.59375 Z M 52.0625 -77.390625 C 52.0625 -72.128906 53.046875 -67.15625 55.015625 -62.46875 C 56.984375 -57.78125 59.703125 -53.703125 63.171875 -50.234375 C 66.640625 -46.765625 70.71875 -44.039062 75.40625 -42.0625 C 80.101562 -40.09375 85.078125 -39.109375 90.328125 -39.109375 C 95.578125 -39.109375 100.5 -40.09375 105.09375 -42.0625 C 109.695312 -44.039062 113.734375 -46.765625 117.203125 -50.234375 C 120.671875 -53.703125 123.390625 -57.78125 125.359375 -62.46875 C 127.335938 -67.15625 128.328125 -72.128906 128.328125 -77.390625 C 128.328125 -82.640625 127.335938 -87.5625 125.359375 -92.15625 C 123.390625 -96.757812 120.671875 -100.796875 117.203125 -104.265625 C 113.734375 -107.734375 109.695312 -110.453125 105.09375 -112.421875 C 100.5 -114.390625 95.578125 -115.375 90.328125 -115.375 C 85.078125 -115.375 80.101562 -114.390625 75.40625 -112.421875 C 70.71875 -110.453125 66.640625 -107.734375 63.171875 -104.265625 C 59.703125 -100.796875 56.984375 -96.757812 55.015625 -92.15625 C 53.046875 -87.5625 52.0625 -82.640625 52.0625 -77.390625 Z M 52.0625 -77.390625 "/></g></g></g><g fill="#ffffff" fill-opacity="1"><g transform="translate(754.064284, 284.145582)"><g><path d="M 90.328125 -157.59375 C 104.023438 -157.59375 116.691406 -154.398438 128.328125 -148.015625 L 128.328125 -154.765625 L 170.53125 -154.765625 L 170.53125 0 L 128.328125 0 L 128.328125 -6.46875 C 116.691406 -0.09375 104.023438 3.09375 90.328125 3.09375 C 79.265625 3.09375 68.851562 0.984375 59.09375 -3.234375 C 49.34375 -7.453125 40.804688 -13.21875 33.484375 -20.53125 C 26.171875 -27.851562 20.398438 -36.390625 16.171875 -46.140625 C 11.953125 -55.898438 9.84375 -66.316406 9.84375 -77.390625 C 9.84375 -88.453125 11.953125 -98.859375 16.171875 -108.609375 C 20.398438 -118.367188 26.171875 -126.859375 33.484375 -134.078125 C 40.804688 -141.304688 49.34375 -147.03125 59.09375 -151.25 C 68.851562 -155.476562 79.265625 -157.59375 90.328125 -157.59375 Z M 90.328125 -39.109375 C 95.578125 -39.109375 100.5 -40.09375 105.09375 -42.0625 C 109.695312 -44.039062 113.734375 -46.765625 117.203125 -50.234375 C 120.671875 -53.703125 123.390625 -57.78125 125.359375 -62.46875 C 127.335938 -67.15625 128.328125 -72.128906 128.328125 -77.390625 C 128.328125 -82.640625 127.335938 -87.5625 125.359375 -92.15625 C 123.390625 -96.757812 120.671875 -100.796875 117.203125 -104.265625 C 113.734375 -107.734375 109.695312 -110.453125 105.09375 -112.421875 C 100.5 -114.390625 95.578125 -115.375 90.328125 -115.375 C 85.078125 -115.375 80.101562 -114.390625 75.40625 -112.421875 C 70.71875 -110.453125 66.640625 -107.734375 63.171875 -104.265625 C 59.703125 -100.796875 56.984375 -96.757812 55.015625 -92.15625 C 53.046875 -87.5625 52.0625 -82.640625 52.0625 -77.390625 C 52.0625 -72.128906 53.046875 -67.15625 55.015625 -62.46875 C 56.984375 -57.78125 59.703125 -53.703125 63.171875 -50.234375 C 66.640625 -46.765625 70.71875 -44.039062 75.40625 -42.0625 C 80.101562 -40.09375 85.078125 -39.109375 90.328125 -39.109375 Z M 90.328125 -39.109375 "/></g></g></g><g fill="#ffffff" fill-opacity="1"><g transform="translate(942.889162, 284.145582)"><g><path d="M 18.296875 -154.765625 L 60.5 -154.765625 L 60.5 -151.109375 C 69.507812 -155.429688 78.890625 -157.59375 88.640625 -157.59375 C 98.210938 -157.59375 107.21875 -155.617188 115.65625 -151.671875 C 124.101562 -147.734375 131.515625 -142.203125 137.890625 -135.078125 C 144.265625 -142.203125 151.671875 -147.734375 160.109375 -151.671875 C 168.554688 -155.617188 177.566406 -157.59375 187.140625 -157.59375 C 196.890625 -157.59375 206.03125 -155.523438 214.5625 -151.390625 C 223.101562 -147.265625 230.5625 -141.632812 236.9375 -134.5 C 243.320312 -127.375 248.390625 -119.023438 252.140625 -109.453125 C 255.890625 -99.890625 257.765625 -89.671875 257.765625 -78.796875 L 257.765625 0 L 215.5625 0 L 215.5625 -78.796875 C 215.5625 -84.796875 214.757812 -90.09375 213.15625 -94.6875 C 211.5625 -99.289062 209.40625 -103.09375 206.6875 -106.09375 C 203.96875 -109.09375 200.921875 -111.34375 197.546875 -112.84375 C 194.171875 -114.34375 190.703125 -115.09375 187.140625 -115.09375 C 182.253906 -115.09375 178.03125 -114.015625 174.46875 -111.859375 C 170.90625 -109.703125 168 -106.882812 165.75 -103.40625 C 163.5 -99.9375 161.8125 -96.046875 160.6875 -91.734375 C 159.5625 -87.421875 159 -83.109375 159 -78.796875 L 159 0 L 116.78125 0 L 116.78125 -78.796875 C 116.78125 -83.109375 116.21875 -87.375 115.09375 -91.59375 C 113.96875 -95.8125 112.28125 -99.703125 110.03125 -103.265625 C 107.78125 -106.835938 104.867188 -109.703125 101.296875 -111.859375 C 97.734375 -114.015625 93.515625 -115.09375 88.640625 -115.09375 C 85.078125 -115.09375 81.609375 -114.34375 78.234375 -112.84375 C 74.859375 -111.34375 71.851562 -109.09375 69.21875 -106.09375 C 66.59375 -103.09375 64.484375 -99.289062 62.890625 -94.6875 C 61.296875 -90.09375 60.5 -84.796875 60.5 -78.796875 L 60.5 0 L 18.296875 0 Z M 18.296875 -154.765625 "/></g></g></g><g fill="#ffffff" fill-opacity="1"><g transform="translate(1217.543604, 284.145582)"><g><path d="M 22.234375 -154.765625 L 64.4375 -154.765625 L 64.4375 0 L 22.234375 0 Z M 18.296875 -196.140625 C 18.296875 -203.078125 20.734375 -208.984375 25.609375 -213.859375 C 30.484375 -218.742188 36.394531 -221.1875 43.34375 -221.1875 C 50.28125 -221.1875 56.1875 -218.742188 61.0625 -213.859375 C 65.9375 -208.984375 68.375 -203.078125 68.375 -196.140625 C 68.375 -189.203125 65.9375 -183.289062 61.0625 -178.40625 C 56.1875 -173.53125 50.28125 -171.09375 43.34375 -171.09375 C 36.394531 -171.09375 30.484375 -173.53125 25.609375 -178.40625 C 20.734375 -183.289062 18.296875 -189.203125 18.296875 -196.140625 Z M 18.296875 -196.140625 "/></g></g></g><g fill="#ffffff" fill-opacity="1"><g transform="translate(1304.217263, 284.145582)"><g><path d="M 90.328125 -157.59375 C 101.398438 -157.59375 111.8125 -155.476562 121.5625 -151.25 C 131.320312 -147.03125 139.8125 -141.304688 147.03125 -134.078125 C 154.257812 -126.859375 159.984375 -118.367188 164.203125 -108.609375 C 168.421875 -98.859375 170.53125 -88.453125 170.53125 -77.390625 C 170.53125 -66.316406 168.421875 -55.898438 164.203125 -46.140625 C 159.984375 -36.390625 154.257812 -27.851562 147.03125 -20.53125 C 139.8125 -13.21875 131.320312 -7.453125 121.5625 -3.234375 C 111.8125 0.984375 101.398438 3.09375 90.328125 3.09375 C 79.265625 3.09375 68.851562 0.984375 59.09375 -3.234375 C 49.34375 -7.453125 40.804688 -13.21875 33.484375 -20.53125 C 26.171875 -27.851562 20.398438 -36.390625 16.171875 -46.140625 C 11.953125 -55.898438 9.84375 -66.316406 9.84375 -77.390625 C 9.84375 -88.453125 11.953125 -98.859375 16.171875 -108.609375 C 20.398438 -118.367188 26.171875 -126.859375 33.484375 -134.078125 C 40.804688 -141.304688 49.34375 -147.03125 59.09375 -151.25 C 68.851562 -155.476562 79.265625 -157.59375 90.328125 -157.59375 Z M 52.0625 -77.390625 C 52.0625 -72.128906 53.046875 -67.15625 55.015625 -62.46875 C 56.984375 -57.78125 59.703125 -53.703125 63.171875 -50.234375 C 66.640625 -46.765625 70.71875 -44.039062 75.40625 -42.0625 C 80.101562 -40.09375 85.078125 -39.109375 90.328125 -39.109375 C 95.578125 -39.109375 100.5 -40.09375 105.09375 -42.0625 C 109.695312 -44.039062 113.734375 -46.765625 117.203125 -50.234375 C 120.671875 -53.703125 123.390625 -57.78125 125.359375 -62.46875 C 127.335938 -67.15625 128.328125 -72.128906 128.328125 -77.390625 C 128.328125 -82.640625 127.335938 -87.5625 125.359375 -92.15625 C 123.390625 -96.757812 120.671875 -100.796875 117.203125 -104.265625 C 113.734375 -107.734375 109.695312 -110.453125 105.09375 -112.421875 C 100.5 -114.390625 95.578125 -115.375 90.328125 -115.375 C 85.078125 -115.375 80.101562 -114.390625 75.40625 -112.421875 C 70.71875 -110.453125 66.640625 -107.734375 63.171875 -104.265625 C 59.703125 -100.796875 56.984375 -96.757812 55.015625 -92.15625 C 53.046875 -87.5625 52.0625 -82.640625 52.0625 -77.390625 Z M 52.0625 -77.390625 "/></g></g></g><path fill="#ffffff" d="M 48.863281 99.636719 C 70.1875 59.585938 114.320312 32.953125 160.65625 27.5 C 196.539062 23.277344 233.75 30.113281 269.367188 48.230469 C 373.128906 106.566406 352.390625 221.6875 342.730469 259.0625 C 324.359375 330.148438 216.054688 342.316406 139.800781 341.003906 C 39.902344 339.273438 -0.046875 191.433594 48.863281 99.636719 " fill-opacity="1" fill-rule="nonzero"/><path fill="#ffffff" d="M 246.480469 91.042969 L 233.496094 103.414062 C 232.808594 104.058594 231.933594 104.386719 231.066406 104.386719 C 230.199219 104.386719 229.328125 104.070312 228.652344 103.441406 L 208.433594 84.375 L 195.75 102.835938 C 195.191406 103.65625 194.300781 104.203125 193.3125 104.332031 C 192.324219 104.457031 191.328125 104.171875 190.566406 103.519531 L 172.304688 87.835938 L 158.304688 103.226562 C 157.675781 103.917969 156.785156 104.339844 155.855469 104.378906 C 154.882812 104.410156 154 104.085938 153.3125 103.441406 L 135.785156 87.367188 C 132.707031 90.761719 129.910156 94.480469 127.457031 98.492188 C 117 115.621094 114.0625 135.84375 118.800781 154.796875 L 140.828125 169.703125 L 148.210938 145.097656 C 148.589844 143.832031 149.625 142.894531 150.925781 142.644531 C 152.207031 142.398438 153.527344 142.894531 154.347656 143.925781 L 180.660156 176.816406 L 205.503906 138.40625 C 206.253906 137.25 207.605469 136.621094 208.976562 136.828125 C 210.34375 137.035156 211.46875 138.015625 211.851562 139.34375 L 219.25 165.492188 L 236.328125 147.132812 C 237.339844 146.042969 238.949219 145.710938 240.3125 146.296875 C 241.679688 146.894531 242.53125 148.296875 242.421875 149.785156 L 240.558594 177.148438 L 254.339844 170.878906 C 254.660156 170.234375 254.980469 169.605469 255.289062 168.96875 C 266.160156 146.363281 264.820312 120.039062 251.722656 98.546875 C 250.121094 95.910156 248.371094 93.414062 246.480469 91.042969 " fill-opacity="1" fill-rule="nonzero"/><path fill="#ff914d" d="M 255.289062 168.96875 C 254.980469 169.605469 254.660156 170.234375 254.339844 170.878906 L 255.410156 170.386719 L 258.117188 176.3125 L 249.308594 180.332031 C 245.207031 187.511719 240.558594 194.601562 235.382812 201.492188 C 208.855469 236.863281 199.125 252.515625 196.273438 257.386719 L 182.847656 257.386719 C 180.085938 252.667969 170.714844 237.691406 143.75 201.5 C 135.867188 190.933594 129.167969 179.949219 123.851562 168.859375 C 123.230469 167.554688 122.65625 166.230469 122.105469 164.910156 L 114.070312 159.46875 L 117.734375 154.074219 L 118.800781 154.796875 C 114.0625 135.84375 117 115.621094 127.457031 98.492188 C 129.910156 94.480469 132.707031 90.761719 135.785156 87.367188 L 133.40625 85.175781 L 137.816406 80.378906 L 140.414062 82.757812 C 153.011719 71.171875 169.390625 64.320312 186.917969 63.820312 C 188.667969 63.773438 190.445312 63.773438 192.207031 63.820312 C 211.378906 64.367188 229.1875 72.5 242.175781 86.140625 L 244.507812 83.914062 L 249.007812 88.632812 L 246.480469 91.042969 C 248.371094 93.414062 250.121094 95.910156 251.722656 98.546875 C 264.820312 120.039062 266.160156 146.363281 255.289062 168.96875 Z M 192.40625 57.300781 C 190.507812 57.246094 188.597656 57.246094 186.71875 57.300781 C 160.105469 58.058594 135.867188 72.191406 121.890625 95.101562 C 107.636719 118.457031 106.171875 147.078125 117.964844 171.675781 C 123.476562 183.140625 130.386719 194.488281 138.511719 205.398438 C 167.382812 244.136719 175.960938 258.46875 177.671875 261.484375 L 177.671875 260.648438 L 184.203125 260.648438 L 184.203125 263.910156 L 194.921875 263.910156 L 194.921875 260.648438 L 201.441406 260.648438 L 201.441406 261.492188 C 203.265625 258.292969 212.390625 243.023438 240.597656 205.40625 C 248.742188 194.542969 255.664062 183.238281 261.167969 171.785156 C 273 147.191406 271.550781 118.535156 257.296875 95.15625 C 243.304688 72.214844 219.042969 58.058594 192.40625 57.300781 " fill-opacity="1" fill-rule="nonzero"/><path fill="#ff914d" d="M 184.203125 263.910156 L 178.9375 263.910156 L 178.03125 262.128906 C 178.023438 262.113281 177.917969 261.914062 177.671875 261.484375 L 177.671875 271.292969 L 184.203125 271.292969 L 184.203125 263.910156 " fill-opacity="1" fill-rule="nonzero"/><path fill="#ff914d" d="M 178.9375 263.910156 L 184.203125 263.910156 L 184.203125 260.648438 L 177.671875 260.648438 L 177.671875 261.484375 C 177.917969 261.914062 178.023438 262.113281 178.03125 262.128906 L 178.9375 263.910156 " fill-opacity="1" fill-rule="nonzero"/><path fill="#ff914d" d="M 200.152344 263.902344 L 198.1875 263.910156 L 194.921875 263.910156 L 194.921875 271.292969 L 201.441406 271.292969 L 201.441406 261.492188 C 201.195312 261.921875 201.078125 262.144531 201.070312 262.160156 L 200.152344 263.902344 " fill-opacity="1" fill-rule="nonzero"/><path fill="#ff914d" d="M 194.921875 260.648438 L 194.921875 263.910156 L 198.1875 263.910156 L 200.152344 263.902344 L 201.070312 262.160156 C 201.078125 262.144531 201.195312 261.921875 201.441406 261.492188 L 201.441406 260.648438 L 194.921875 260.648438 " fill-opacity="1" fill-rule="nonzero"/><path fill="#ff914d" d="M 208.6875 303.601562 L 170.425781 303.601562 L 170.425781 277.8125 L 208.6875 277.8125 Z M 194.921875 274.550781 L 194.921875 271.292969 L 184.203125 271.292969 L 184.203125 274.550781 L 177.671875 274.550781 L 177.671875 271.292969 L 167.496094 271.292969 C 165.519531 271.292969 163.914062 272.894531 163.914062 274.875 L 163.914062 306.53125 C 163.914062 308.511719 165.519531 310.117188 167.496094 310.117188 L 211.628906 310.117188 C 213.601562 310.117188 215.210938 308.511719 215.210938 306.53125 L 215.210938 274.875 C 215.210938 272.894531 213.601562 271.292969 211.628906 271.292969 L 201.441406 271.292969 L 201.441406 274.550781 L 194.921875 274.550781 " fill-opacity="1" fill-rule="nonzero"/><path fill="#ff914d" d="M 184.203125 274.550781 L 184.203125 271.292969 L 177.671875 271.292969 L 177.671875 274.550781 L 184.203125 274.550781 " fill-opacity="1" fill-rule="nonzero"/><path fill="#ff914d" d="M 194.921875 274.550781 L 201.441406 274.550781 L 201.441406 271.292969 L 194.921875 271.292969 L 194.921875 274.550781 " fill-opacity="1" fill-rule="nonzero"/><path fill="#ff914d" d="M 235.914062 149.347656 C 235.914062 149.339844 235.914062 149.339844 235.914062 149.332031 C 235.914062 149.339844 235.914062 149.339844 235.914062 149.347656 Z M 210.984375 141.945312 L 210.984375 141.9375 Z M 178.390625 180.332031 C 178.390625 180.316406 178.398438 180.308594 178.40625 180.300781 C 178.398438 180.308594 178.390625 180.316406 178.390625 180.332031 Z M 149.246094 147.976562 C 149.253906 147.992188 149.261719 148 149.261719 148.007812 C 149.261719 148 149.253906 147.992188 149.246094 147.976562 Z M 242.421875 149.785156 C 242.53125 148.296875 241.679688 146.894531 240.3125 146.296875 C 238.949219 145.710938 237.339844 146.042969 236.328125 147.132812 L 219.25 165.492188 L 211.851562 139.34375 C 211.46875 138.015625 210.34375 137.035156 208.976562 136.828125 C 207.605469 136.621094 206.253906 137.25 205.503906 138.40625 L 180.660156 176.816406 L 154.347656 143.925781 C 153.527344 142.894531 152.207031 142.398438 150.925781 142.644531 C 149.625 142.894531 148.589844 143.832031 148.210938 145.097656 L 140.828125 169.703125 L 118.800781 154.796875 C 119.660156 158.210938 120.753906 161.59375 122.105469 164.910156 L 140.558594 177.386719 C 141.480469 178.015625 142.652344 178.160156 143.703125 177.792969 C 144.761719 177.421875 145.574219 176.554688 145.898438 175.488281 L 152.8125 152.449219 L 178.175781 184.144531 C 178.882812 185.027344 179.988281 185.511719 181.113281 185.457031 C 182.234375 185.394531 183.277344 184.789062 183.875 183.851562 L 207.382812 147.507812 L 214.429688 172.40625 C 214.773438 173.625 215.753906 174.5625 216.988281 174.859375 C 218.222656 175.160156 219.519531 174.769531 220.394531 173.832031 L 235.332031 157.773438 L 233.710938 181.742188 C 233.628906 182.964844 234.210938 184.160156 235.222656 184.859375 C 235.8125 185.273438 236.511719 185.480469 237.222656 185.480469 C 237.722656 185.480469 238.214844 185.378906 238.6875 185.171875 L 249.308594 180.332031 C 251.09375 177.199219 252.773438 174.046875 254.339844 170.878906 L 240.558594 177.148438 L 242.421875 149.785156 " fill-opacity="1" fill-rule="nonzero"/><path fill="#ff914d" d="M 117.734375 154.074219 L 114.070312 159.46875 L 122.105469 164.910156 C 120.753906 161.59375 119.660156 158.210938 118.800781 154.796875 L 117.734375 154.074219 " fill-opacity="1" fill-rule="nonzero"/><path fill="#ff914d" d="M 258.117188 176.3125 L 255.410156 170.386719 L 254.339844 170.878906 C 252.773438 174.046875 251.09375 177.199219 249.308594 180.332031 L 258.117188 176.3125 " fill-opacity="1" fill-rule="nonzero"/><path fill="#ff914d" d="M 157.726562 98.648438 L 157.710938 98.632812 Z M 205.894531 81.96875 C 205.886719 81.96875 205.886719 81.96875 205.886719 81.96875 C 205.886719 81.96875 205.886719 81.96875 205.894531 81.96875 Z M 155.855469 104.378906 C 156.785156 104.339844 157.675781 103.917969 158.304688 103.226562 L 172.304688 87.835938 L 190.566406 103.519531 C 191.328125 104.171875 192.324219 104.457031 193.3125 104.332031 C 194.300781 104.203125 195.191406 103.65625 195.75 102.835938 L 208.433594 84.375 L 228.652344 103.441406 C 229.328125 104.070312 230.199219 104.386719 231.066406 104.386719 C 231.933594 104.386719 232.808594 104.058594 233.496094 103.414062 L 246.480469 91.042969 C 245.121094 89.324219 243.664062 87.707031 242.175781 86.140625 L 231.050781 96.730469 L 210.371094 77.226562 C 209.621094 76.519531 208.59375 76.183594 207.574219 76.289062 C 206.546875 76.390625 205.625 76.949219 205.042969 77.800781 L 192.269531 96.390625 L 174.335938 80.984375 C 172.886719 79.757812 170.746094 79.886719 169.4375 81.292969 L 155.511719 96.613281 L 140.414062 82.757812 C 138.8125 84.222656 137.261719 85.75 135.785156 87.367188 L 153.3125 103.441406 C 154 104.085938 154.882812 104.410156 155.855469 104.378906 " fill-opacity="1" fill-rule="nonzero"/><path fill="#ff914d" d="M 140.414062 82.757812 L 137.816406 80.378906 L 133.40625 85.175781 L 135.785156 87.367188 C 137.261719 85.75 138.8125 84.222656 140.414062 82.757812 " fill-opacity="1" fill-rule="nonzero"/><path fill="#ff914d" d="M 249.007812 88.632812 L 244.507812 83.914062 L 242.175781 86.140625 C 243.664062 87.707031 245.121094 89.324219 246.480469 91.042969 L 249.007812 88.632812 " fill-opacity="1" fill-rule="nonzero"/></svg>