<svg xmlns="http://www.w3.org/2000/svg" xmlns:xlink="http://www.w3.org/1999/xlink" width="2500" zoomAndPan="magnify" viewBox="0 0 1874.88 1874.999927" height="2500" preserveAspectRatio="xMidYMid meet" version="1.0"><path fill="#ff914d" d="M 245.429688 519.136719 C 352.546875 317.796875 574.21875 183.90625 806.972656 156.503906 C 987.207031 135.261719 1174.121094 169.625 1353.035156 260.714844 C 1874.214844 553.976562 1770.058594 1132.707031 1721.542969 1320.601562 C 1629.265625 1677.949219 1085.242188 1739.117188 702.214844 1732.515625 C 200.433594 1723.835938 -0.238281 980.613281 245.429688 519.136719 " fill-opacity="1" fill-rule="nonzero"/><path fill="#ff914d" d="M 1238.078125 475.933594 L 1172.839844 538.136719 C 1169.398438 541.378906 1165 543.015625 1160.640625 543.015625 C 1156.28125 543.015625 1151.921875 541.417969 1148.519531 538.257812 L 1046.964844 442.410156 L 983.246094 535.214844 C 980.445312 539.335938 975.964844 542.097656 971.007812 542.738281 C 966.046875 543.378906 961.046875 541.9375 957.207031 538.65625 L 865.492188 459.808594 L 795.171875 537.175781 C 792.011719 540.65625 787.53125 542.777344 782.851562 542.976562 C 777.972656 543.136719 773.535156 541.496094 770.09375 538.257812 L 682.058594 457.449219 C 666.578125 474.53125 652.539062 493.214844 640.21875 513.375 C 587.699219 599.5 572.941406 701.148438 596.738281 796.4375 L 707.375 871.363281 L 744.453125 747.675781 C 746.375 741.3125 751.574219 736.59375 758.09375 735.351562 C 764.535156 734.113281 771.171875 736.59375 775.292969 741.792969 L 907.449219 907.128906 L 1032.246094 714.03125 C 1036.003906 708.230469 1042.804688 705.070312 1049.683594 706.109375 C 1056.5625 707.152344 1062.203125 712.070312 1064.125 718.75 L 1101.28125 850.203125 L 1187.078125 757.914062 C 1192.160156 752.433594 1200.238281 750.753906 1207.078125 753.714844 C 1213.957031 756.714844 1218.238281 763.753906 1217.679688 771.234375 L 1208.320312 908.808594 L 1277.554688 877.285156 C 1279.15625 874.042969 1280.757812 870.882812 1282.316406 867.683594 C 1336.914062 754.035156 1330.195312 621.703125 1264.398438 513.65625 C 1256.355469 500.414062 1247.558594 487.851562 1238.078125 475.933594 " fill-opacity="1" fill-rule="nonzero"/><path fill="#ffffff" d="M 1282.316406 867.683594 C 1280.757812 870.882812 1279.15625 874.042969 1277.554688 877.285156 L 1282.917969 874.804688 L 1296.515625 904.605469 L 1252.277344 924.808594 C 1231.679688 960.890625 1208.320312 996.535156 1182.320312 1031.175781 C 1049.085938 1208.992188 1000.207031 1287.679688 985.886719 1312.160156 L 918.449219 1312.160156 C 904.570312 1288.4375 857.492188 1213.152344 722.054688 1031.21875 C 682.457031 978.09375 648.816406 922.886719 622.097656 867.125 C 618.980469 860.5625 616.097656 853.921875 613.339844 847.28125 L 572.980469 819.921875 L 591.378906 792.796875 L 596.738281 796.4375 C 572.941406 701.148438 587.699219 599.5 640.21875 513.375 C 652.539062 493.214844 666.578125 474.53125 682.058594 457.449219 L 670.097656 446.449219 L 692.257812 422.328125 L 705.296875 434.289062 C 768.574219 376.042969 850.851562 341.601562 938.886719 339.082031 C 947.6875 338.839844 956.605469 338.839844 965.445312 339.082031 C 1061.765625 341.839844 1151.199219 382.722656 1216.4375 451.289062 L 1228.15625 440.089844 L 1250.757812 463.8125 L 1238.078125 475.933594 C 1247.558594 487.851562 1256.355469 500.414062 1264.398438 513.65625 C 1330.195312 621.703125 1336.914062 754.035156 1282.316406 867.683594 Z M 966.445312 306.316406 C 956.925781 306.039062 947.328125 306.039062 937.886719 306.316406 C 804.210938 310.117188 682.457031 381.164062 612.257812 496.332031 C 540.660156 613.742188 533.300781 757.636719 592.539062 881.285156 C 620.21875 938.929688 654.9375 995.972656 695.734375 1050.820312 C 840.769531 1245.554688 883.851562 1317.601562 892.449219 1332.761719 L 892.449219 1328.5625 L 925.25 1328.5625 L 925.25 1344.964844 L 979.085938 1344.964844 L 979.085938 1328.5625 L 1011.84375 1328.5625 L 1011.84375 1332.800781 C 1021.003906 1316.722656 1066.84375 1239.953125 1208.519531 1050.859375 C 1249.4375 996.253906 1284.195312 939.410156 1311.835938 881.84375 C 1371.273438 758.195312 1363.992188 614.144531 1292.394531 496.613281 C 1222.117188 381.285156 1100.242188 310.117188 966.445312 306.316406 " fill-opacity="1" fill-rule="nonzero"/><path fill="#ffffff" d="M 925.25 1344.964844 L 898.808594 1344.964844 L 894.25 1336.003906 C 894.210938 1335.921875 893.691406 1334.921875 892.449219 1332.761719 L 892.449219 1382.085938 L 925.25 1382.085938 L 925.25 1344.964844 " fill-opacity="1" fill-rule="nonzero"/><path fill="#ffffff" d="M 898.808594 1344.964844 L 925.25 1344.964844 L 925.25 1328.5625 L 892.449219 1328.5625 L 892.449219 1332.761719 C 893.691406 1334.921875 894.210938 1335.921875 894.25 1336.003906 L 898.808594 1344.964844 " fill-opacity="1" fill-rule="nonzero"/><path fill="#ffffff" d="M 1005.367188 1344.921875 L 995.484375 1344.964844 L 979.085938 1344.964844 L 979.085938 1382.085938 L 1011.84375 1382.085938 L 1011.84375 1332.800781 C 1010.605469 1334.960938 1010.003906 1336.082031 1009.964844 1336.164062 L 1005.367188 1344.921875 " fill-opacity="1" fill-rule="nonzero"/><path fill="#ffffff" d="M 979.085938 1328.5625 L 979.085938 1344.964844 L 995.484375 1344.964844 L 1005.367188 1344.921875 L 1009.964844 1336.164062 C 1010.003906 1336.082031 1010.605469 1334.960938 1011.84375 1332.800781 L 1011.84375 1328.5625 L 979.085938 1328.5625 " fill-opacity="1" fill-rule="nonzero"/><path fill="#ffffff" d="M 1048.246094 1544.5 L 856.050781 1544.5 L 856.050781 1414.847656 L 1048.246094 1414.847656 Z M 979.085938 1398.449219 L 979.085938 1382.085938 L 925.25 1382.085938 L 925.25 1398.449219 L 892.449219 1398.449219 L 892.449219 1382.085938 L 841.332031 1382.085938 C 831.410156 1382.085938 823.332031 1390.128906 823.332031 1400.085938 L 823.332031 1559.222656 C 823.332031 1569.183594 831.410156 1577.261719 841.332031 1577.261719 L 1063.003906 1577.261719 C 1072.921875 1577.261719 1081.003906 1569.183594 1081.003906 1559.222656 L 1081.003906 1400.085938 C 1081.003906 1390.128906 1072.921875 1382.085938 1063.003906 1382.085938 L 1011.84375 1382.085938 L 1011.84375 1398.449219 L 979.085938 1398.449219 " fill-opacity="1" fill-rule="nonzero"/><path fill="#ffffff" d="M 925.25 1398.449219 L 925.25 1382.085938 L 892.449219 1382.085938 L 892.449219 1398.449219 L 925.25 1398.449219 " fill-opacity="1" fill-rule="nonzero"/><path fill="#ffffff" d="M 979.085938 1398.449219 L 1011.84375 1398.449219 L 1011.84375 1382.085938 L 979.085938 1382.085938 L 979.085938 1398.449219 " fill-opacity="1" fill-rule="nonzero"/><path fill="#ffffff" d="M 1185 769.035156 C 1185 768.996094 1185 768.996094 1185 768.957031 C 1185 768.996094 1185 768.996094 1185 769.035156 Z M 1059.765625 731.832031 L 1059.765625 731.792969 Z M 896.050781 924.808594 C 896.050781 924.730469 896.089844 924.6875 896.128906 924.648438 C 896.089844 924.6875 896.050781 924.730469 896.050781 924.808594 Z M 749.65625 762.15625 C 749.695312 762.234375 749.734375 762.273438 749.734375 762.316406 C 749.734375 762.273438 749.695312 762.234375 749.65625 762.15625 Z M 1217.679688 771.234375 C 1218.238281 763.753906 1213.957031 756.714844 1207.078125 753.714844 C 1200.238281 750.753906 1192.160156 752.433594 1187.078125 757.914062 L 1101.28125 850.203125 L 1064.125 718.75 C 1062.203125 712.070312 1056.5625 707.152344 1049.683594 706.109375 C 1042.804688 705.070312 1036.003906 708.230469 1032.246094 714.03125 L 907.449219 907.128906 L 775.292969 741.792969 C 771.171875 736.59375 764.535156 734.113281 758.09375 735.351562 C 751.574219 736.59375 746.375 741.3125 744.453125 747.675781 L 707.375 871.363281 L 596.738281 796.4375 C 601.058594 813.597656 606.539062 830.601562 613.339844 847.28125 L 706.015625 910.007812 C 710.65625 913.167969 716.535156 913.886719 721.816406 912.046875 C 727.136719 910.167969 731.214844 905.808594 732.855469 900.445312 L 767.574219 784.636719 L 894.96875 943.96875 C 898.53125 948.410156 904.089844 950.851562 909.730469 950.570312 C 915.367188 950.25 920.609375 947.210938 923.609375 942.488281 L 1041.683594 759.796875 L 1077.082031 884.964844 C 1078.804688 891.085938 1083.722656 895.804688 1089.921875 897.285156 C 1096.121094 898.804688 1102.640625 896.847656 1107.042969 892.125 L 1182.078125 811.398438 L 1173.917969 931.890625 C 1173.519531 938.050781 1176.441406 944.050781 1181.519531 947.570312 C 1184.480469 949.652344 1188 950.691406 1191.558594 950.691406 C 1194.078125 950.691406 1196.558594 950.171875 1198.917969 949.128906 L 1252.277344 924.808594 C 1261.238281 909.046875 1269.675781 893.207031 1277.554688 877.285156 L 1208.320312 908.808594 L 1217.679688 771.234375 " fill-opacity="1" fill-rule="nonzero"/><path fill="#ffffff" d="M 591.378906 792.796875 L 572.980469 819.921875 L 613.339844 847.28125 C 606.539062 830.601562 601.058594 813.597656 596.738281 796.4375 L 591.378906 792.796875 " fill-opacity="1" fill-rule="nonzero"/><path fill="#ffffff" d="M 1296.515625 904.605469 L 1282.917969 874.804688 L 1277.554688 877.285156 C 1269.675781 893.207031 1261.238281 909.046875 1252.277344 924.808594 L 1296.515625 904.605469 " fill-opacity="1" fill-rule="nonzero"/><path fill="#ffffff" d="M 792.253906 514.175781 L 792.171875 514.09375 Z M 1034.203125 430.328125 C 1034.164062 430.328125 1034.164062 430.328125 1034.164062 430.328125 C 1034.164062 430.328125 1034.164062 430.328125 1034.203125 430.328125 Z M 782.851562 542.976562 C 787.53125 542.777344 792.011719 540.65625 795.171875 537.175781 L 865.492188 459.808594 L 957.207031 538.65625 C 961.046875 541.9375 966.046875 543.378906 971.007812 542.738281 C 975.964844 542.097656 980.445312 539.335938 983.246094 535.214844 L 1046.964844 442.410156 L 1148.519531 538.257812 C 1151.921875 541.417969 1156.28125 543.015625 1160.640625 543.015625 C 1165 543.015625 1169.398438 541.378906 1172.839844 538.136719 L 1238.078125 475.933594 C 1231.238281 467.289062 1223.917969 459.171875 1216.4375 451.289062 L 1160.558594 504.535156 L 1056.683594 406.484375 C 1052.925781 402.925781 1047.765625 401.246094 1042.644531 401.765625 C 1037.484375 402.285156 1032.84375 405.085938 1029.925781 409.367188 L 965.765625 502.8125 L 875.691406 425.367188 C 868.410156 419.207031 857.652344 419.847656 851.089844 426.925781 L 781.132812 503.933594 L 705.296875 434.289062 C 697.257812 441.648438 689.457031 449.328125 682.058594 457.449219 L 770.09375 538.257812 C 773.535156 541.496094 777.972656 543.136719 782.851562 542.976562 " fill-opacity="1" fill-rule="nonzero"/><path fill="#ffffff" d="M 705.296875 434.289062 L 692.257812 422.328125 L 670.097656 446.449219 L 682.058594 457.449219 C 689.457031 449.328125 697.257812 441.648438 705.296875 434.289062 " fill-opacity="1" fill-rule="nonzero"/><path fill="#ffffff" d="M 1250.757812 463.8125 L 1228.15625 440.089844 L 1216.4375 451.289062 C 1223.917969 459.171875 1231.238281 467.289062 1238.078125 475.933594 L 1250.757812 463.8125 " fill-opacity="1" fill-rule="nonzero"/></svg>