<svg xmlns="http://www.w3.org/2000/svg" xmlns:xlink="http://www.w3.org/1999/xlink" width="3000" zoomAndPan="magnify" viewBox="0 0 2250 374.999991" height="500" preserveAspectRatio="xMidYMid meet" version="1.0"><defs><g/></defs><g fill="#ff914d" fill-opacity="1"><g transform="translate(330.570908, 277.591939)"><g><path d="M 16.765625 0 L 16.765625 -167.609375 L 90.03125 -167.609375 C 97.851562 -167.609375 105.195312 -166.007812 112.0625 -162.8125 C 118.925781 -159.625 124.953125 -155.273438 130.140625 -149.765625 C 135.328125 -144.253906 139.394531 -137.828125 142.34375 -130.484375 C 145.300781 -123.148438 146.78125 -115.253906 146.78125 -106.796875 C 146.78125 -100.410156 145.898438 -94.34375 144.140625 -88.59375 C 142.378906 -82.84375 139.863281 -77.648438 136.59375 -73.015625 C 133.320312 -68.390625 129.453125 -64.320312 124.984375 -60.8125 C 120.515625 -57.300781 115.644531 -54.507812 110.375 -52.4375 L 146.296875 0 L 101.046875 0 L 68 -48.84375 L 53.875 -48.84375 L 53.875 0 Z M 90.03125 -86.203125 C 95.300781 -86.203125 99.769531 -87.835938 103.4375 -91.109375 C 107.101562 -94.378906 108.9375 -99.367188 108.9375 -106.078125 C 108.9375 -109.421875 108.457031 -112.53125 107.5 -115.40625 C 106.550781 -118.28125 105.195312 -120.796875 103.4375 -122.953125 C 101.675781 -125.109375 99.675781 -126.785156 97.4375 -127.984375 C 95.207031 -129.179688 92.738281 -129.78125 90.03125 -129.78125 L 53.875 -129.78125 L 53.875 -86.203125 Z M 90.03125 -86.203125 "/></g></g></g><g fill="#ff914d" fill-opacity="1"><g transform="translate(488.121235, 277.591939)"><g><path d="M 76.859375 -134.078125 C 86.273438 -134.078125 95.132812 -132.28125 103.4375 -128.6875 C 111.738281 -125.101562 118.960938 -120.238281 125.109375 -114.09375 C 131.253906 -107.945312 136.117188 -100.722656 139.703125 -92.421875 C 143.296875 -84.117188 145.09375 -75.257812 145.09375 -65.84375 C 145.09375 -56.425781 143.296875 -47.566406 139.703125 -39.265625 C 136.117188 -30.960938 131.253906 -23.695312 125.109375 -17.46875 C 118.960938 -11.25 111.738281 -6.34375 103.4375 -2.75 C 95.132812 0.84375 86.273438 2.640625 76.859375 2.640625 C 67.441406 2.640625 58.582031 0.84375 50.28125 -2.75 C 41.976562 -6.34375 34.710938 -11.25 28.484375 -17.46875 C 22.265625 -23.695312 17.359375 -30.960938 13.765625 -39.265625 C 10.171875 -47.566406 8.375 -56.425781 8.375 -65.84375 C 8.375 -75.257812 10.171875 -84.117188 13.765625 -92.421875 C 17.359375 -100.722656 22.265625 -107.945312 28.484375 -114.09375 C 34.710938 -120.238281 41.976562 -125.101562 50.28125 -128.6875 C 58.582031 -132.28125 67.441406 -134.078125 76.859375 -134.078125 Z M 44.296875 -65.84375 C 44.296875 -61.375 45.132812 -57.144531 46.8125 -53.15625 C 48.488281 -49.164062 50.800781 -45.691406 53.75 -42.734375 C 56.707031 -39.785156 60.179688 -37.472656 64.171875 -35.796875 C 68.160156 -34.117188 72.390625 -33.28125 76.859375 -33.28125 C 81.328125 -33.28125 85.515625 -34.117188 89.421875 -35.796875 C 93.335938 -37.472656 96.769531 -39.785156 99.71875 -42.734375 C 102.675781 -45.691406 104.992188 -49.164062 106.671875 -53.15625 C 108.347656 -57.144531 109.1875 -61.375 109.1875 -65.84375 C 109.1875 -70.3125 108.347656 -74.5 106.671875 -78.40625 C 104.992188 -82.320312 102.675781 -85.753906 99.71875 -88.703125 C 96.769531 -91.660156 93.335938 -93.976562 89.421875 -95.65625 C 85.515625 -97.332031 81.328125 -98.171875 76.859375 -98.171875 C 72.390625 -98.171875 68.160156 -97.332031 64.171875 -95.65625 C 60.179688 -93.976562 56.707031 -91.660156 53.75 -88.703125 C 50.800781 -85.753906 48.488281 -82.320312 46.8125 -78.40625 C 45.132812 -74.5 44.296875 -70.3125 44.296875 -65.84375 Z M 44.296875 -65.84375 "/></g></g></g><g fill="#ff914d" fill-opacity="1"><g transform="translate(641.601122, 277.591939)"><g><path d="M 76.859375 -134.078125 C 88.515625 -134.078125 99.289062 -131.363281 109.1875 -125.9375 L 109.1875 -131.6875 L 145.09375 -131.6875 L 145.09375 0 L 109.1875 0 L 109.1875 -5.5 C 99.289062 -0.0703125 88.515625 2.640625 76.859375 2.640625 C 67.441406 2.640625 58.582031 0.84375 50.28125 -2.75 C 41.976562 -6.34375 34.710938 -11.25 28.484375 -17.46875 C 22.265625 -23.695312 17.359375 -30.960938 13.765625 -39.265625 C 10.171875 -47.566406 8.375 -56.425781 8.375 -65.84375 C 8.375 -75.257812 10.171875 -84.117188 13.765625 -92.421875 C 17.359375 -100.722656 22.265625 -107.945312 28.484375 -114.09375 C 34.710938 -120.238281 41.976562 -125.101562 50.28125 -128.6875 C 58.582031 -132.28125 67.441406 -134.078125 76.859375 -134.078125 Z M 76.859375 -33.28125 C 81.328125 -33.28125 85.515625 -34.117188 89.421875 -35.796875 C 93.335938 -37.472656 96.769531 -39.785156 99.71875 -42.734375 C 102.675781 -45.691406 104.992188 -49.164062 106.671875 -53.15625 C 108.347656 -57.144531 109.1875 -61.375 109.1875 -65.84375 C 109.1875 -70.3125 108.347656 -74.5 106.671875 -78.40625 C 104.992188 -82.320312 102.675781 -85.753906 99.71875 -88.703125 C 96.769531 -91.660156 93.335938 -93.976562 89.421875 -95.65625 C 85.515625 -97.332031 81.328125 -98.171875 76.859375 -98.171875 C 72.390625 -98.171875 68.160156 -97.332031 64.171875 -95.65625 C 60.179688 -93.976562 56.707031 -91.660156 53.75 -88.703125 C 50.800781 -85.753906 48.488281 -82.320312 46.8125 -78.40625 C 45.132812 -74.5 44.296875 -70.3125 44.296875 -65.84375 C 44.296875 -61.375 45.132812 -57.144531 46.8125 -53.15625 C 48.488281 -49.164062 50.800781 -45.691406 53.75 -42.734375 C 56.707031 -39.785156 60.179688 -37.472656 64.171875 -35.796875 C 68.160156 -34.117188 72.390625 -33.28125 76.859375 -33.28125 Z M 76.859375 -33.28125 "/></g></g></g><g fill="#ff914d" fill-opacity="1"><g transform="translate(802.264152, 277.591939)"><g><path d="M 15.5625 -131.6875 L 51.484375 -131.6875 L 51.484375 -128.578125 C 59.140625 -132.242188 67.117188 -134.078125 75.421875 -134.078125 C 83.566406 -134.078125 91.226562 -132.398438 98.40625 -129.046875 C 105.59375 -125.703125 111.898438 -121 117.328125 -114.9375 C 122.753906 -121 129.054688 -125.703125 136.234375 -129.046875 C 143.421875 -132.398438 151.082031 -134.078125 159.21875 -134.078125 C 167.519531 -134.078125 175.300781 -132.320312 182.5625 -128.8125 C 189.832031 -125.300781 196.179688 -120.515625 201.609375 -114.453125 C 207.035156 -108.390625 211.34375 -101.285156 214.53125 -93.140625 C 217.726562 -85.003906 219.328125 -76.304688 219.328125 -67.046875 L 219.328125 0 L 183.40625 0 L 183.40625 -67.046875 C 183.40625 -72.148438 182.726562 -76.65625 181.375 -80.5625 C 180.019531 -84.476562 178.179688 -87.710938 175.859375 -90.265625 C 173.546875 -92.816406 170.953125 -94.734375 168.078125 -96.015625 C 165.210938 -97.296875 162.257812 -97.9375 159.21875 -97.9375 C 155.070312 -97.9375 151.484375 -97.015625 148.453125 -95.171875 C 145.421875 -93.335938 142.945312 -90.941406 141.03125 -87.984375 C 139.113281 -85.035156 137.675781 -81.722656 136.71875 -78.046875 C 135.757812 -74.378906 135.28125 -70.710938 135.28125 -67.046875 L 135.28125 0 L 99.359375 0 L 99.359375 -67.046875 C 99.359375 -70.710938 98.878906 -74.34375 97.921875 -77.9375 C 96.972656 -81.53125 95.539062 -84.84375 93.625 -87.875 C 91.707031 -90.90625 89.226562 -93.335938 86.1875 -95.171875 C 83.15625 -97.015625 79.566406 -97.9375 75.421875 -97.9375 C 72.390625 -97.9375 69.4375 -97.296875 66.5625 -96.015625 C 63.6875 -94.734375 61.128906 -92.816406 58.890625 -90.265625 C 56.660156 -87.710938 54.867188 -84.476562 53.515625 -80.5625 C 52.160156 -76.65625 51.484375 -72.148438 51.484375 -67.046875 L 51.484375 0 L 15.5625 0 Z M 15.5625 -131.6875 "/></g></g></g><g fill="#ff914d" fill-opacity="1"><g transform="translate(1035.955893, 277.591939)"><g><path d="M 18.921875 -131.6875 L 54.828125 -131.6875 L 54.828125 0 L 18.921875 0 Z M 15.5625 -166.890625 C 15.5625 -172.796875 17.632812 -177.820312 21.78125 -181.96875 C 25.9375 -186.125 30.96875 -188.203125 36.875 -188.203125 C 42.78125 -188.203125 47.804688 -186.125 51.953125 -181.96875 C 56.109375 -177.820312 58.1875 -172.796875 58.1875 -166.890625 C 58.1875 -160.984375 56.109375 -155.953125 51.953125 -151.796875 C 47.804688 -147.648438 42.78125 -145.578125 36.875 -145.578125 C 30.96875 -145.578125 25.9375 -147.648438 21.78125 -151.796875 C 17.632812 -155.953125 15.5625 -160.984375 15.5625 -166.890625 Z M 15.5625 -166.890625 "/></g></g></g><g fill="#ff914d" fill-opacity="1"><g transform="translate(1109.702811, 277.591939)"><g><path d="M 76.859375 -134.078125 C 86.273438 -134.078125 95.132812 -132.28125 103.4375 -128.6875 C 111.738281 -125.101562 118.960938 -120.238281 125.109375 -114.09375 C 131.253906 -107.945312 136.117188 -100.722656 139.703125 -92.421875 C 143.296875 -84.117188 145.09375 -75.257812 145.09375 -65.84375 C 145.09375 -56.425781 143.296875 -47.566406 139.703125 -39.265625 C 136.117188 -30.960938 131.253906 -23.695312 125.109375 -17.46875 C 118.960938 -11.25 111.738281 -6.34375 103.4375 -2.75 C 95.132812 0.84375 86.273438 2.640625 76.859375 2.640625 C 67.441406 2.640625 58.582031 0.84375 50.28125 -2.75 C 41.976562 -6.34375 34.710938 -11.25 28.484375 -17.46875 C 22.265625 -23.695312 17.359375 -30.960938 13.765625 -39.265625 C 10.171875 -47.566406 8.375 -56.425781 8.375 -65.84375 C 8.375 -75.257812 10.171875 -84.117188 13.765625 -92.421875 C 17.359375 -100.722656 22.265625 -107.945312 28.484375 -114.09375 C 34.710938 -120.238281 41.976562 -125.101562 50.28125 -128.6875 C 58.582031 -132.28125 67.441406 -134.078125 76.859375 -134.078125 Z M 44.296875 -65.84375 C 44.296875 -61.375 45.132812 -57.144531 46.8125 -53.15625 C 48.488281 -49.164062 50.800781 -45.691406 53.75 -42.734375 C 56.707031 -39.785156 60.179688 -37.472656 64.171875 -35.796875 C 68.160156 -34.117188 72.390625 -33.28125 76.859375 -33.28125 C 81.328125 -33.28125 85.515625 -34.117188 89.421875 -35.796875 C 93.335938 -37.472656 96.769531 -39.785156 99.71875 -42.734375 C 102.675781 -45.691406 104.992188 -49.164062 106.671875 -53.15625 C 108.347656 -57.144531 109.1875 -61.375 109.1875 -65.84375 C 109.1875 -70.3125 108.347656 -74.5 106.671875 -78.40625 C 104.992188 -82.320312 102.675781 -85.753906 99.71875 -88.703125 C 96.769531 -91.660156 93.335938 -93.976562 89.421875 -95.65625 C 85.515625 -97.332031 81.328125 -98.171875 76.859375 -98.171875 C 72.390625 -98.171875 68.160156 -97.332031 64.171875 -95.65625 C 60.179688 -93.976562 56.707031 -91.660156 53.75 -88.703125 C 50.800781 -85.753906 48.488281 -82.320312 46.8125 -78.40625 C 45.132812 -74.5 44.296875 -70.3125 44.296875 -65.84375 Z M 44.296875 -65.84375 "/></g></g></g><path fill="#ff914d" d="M 41.558594 120.621094 C 59.695312 86.535156 97.230469 63.867188 136.640625 59.226562 C 167.160156 55.628906 198.808594 61.449219 229.105469 76.867188 C 317.355469 126.519531 299.71875 224.503906 291.503906 256.316406 C 275.878906 316.816406 183.761719 327.171875 118.902344 326.054688 C 33.9375 324.585938 -0.0390625 198.753906 41.558594 120.621094 " fill-opacity="1" fill-rule="nonzero"/><path fill="#ff914d" d="M 209.640625 113.308594 L 198.59375 123.839844 C 198.011719 124.386719 197.265625 124.664062 196.527344 124.664062 C 195.789062 124.664062 195.050781 124.394531 194.476562 123.859375 L 177.28125 107.632812 L 166.488281 123.34375 C 166.015625 124.042969 165.257812 124.507812 164.417969 124.617188 C 163.578125 124.726562 162.730469 124.480469 162.082031 123.925781 L 146.550781 110.578125 L 134.644531 123.675781 C 134.109375 124.265625 133.351562 124.625 132.558594 124.660156 C 131.730469 124.683594 130.980469 124.40625 130.398438 123.859375 L 115.492188 110.179688 C 112.871094 113.070312 110.492188 116.234375 108.40625 119.644531 C 99.511719 134.226562 97.015625 151.4375 101.042969 167.570312 L 119.777344 180.257812 L 126.054688 159.316406 C 126.382812 158.238281 127.261719 157.4375 128.367188 157.230469 C 129.457031 157.019531 130.582031 157.4375 131.277344 158.320312 L 153.65625 186.3125 L 174.785156 153.617188 C 175.421875 152.636719 176.574219 152.101562 177.738281 152.277344 C 178.90625 152.453125 179.859375 153.289062 180.183594 154.417969 L 186.476562 176.671875 L 201.003906 161.050781 C 201.863281 160.121094 203.234375 159.835938 204.390625 160.335938 C 205.554688 160.84375 206.28125 162.039062 206.1875 163.304688 L 204.601562 186.597656 L 216.324219 181.257812 C 216.597656 180.710938 216.867188 180.175781 217.128906 179.632812 C 226.375 160.390625 225.238281 137.988281 214.097656 119.695312 C 212.734375 117.453125 211.246094 115.324219 209.640625 113.308594 " fill-opacity="1" fill-rule="nonzero"/><path fill="#ffffff" d="M 217.128906 179.632812 C 216.867188 180.175781 216.597656 180.710938 216.324219 181.257812 L 217.230469 180.839844 L 219.535156 185.886719 L 212.042969 189.304688 C 208.554688 195.414062 204.601562 201.449219 200.199219 207.3125 C 177.636719 237.417969 169.363281 250.742188 166.9375 254.886719 L 155.519531 254.886719 C 153.167969 250.871094 145.195312 238.125 122.261719 207.320312 C 115.558594 198.328125 109.863281 188.980469 105.339844 179.539062 C 104.808594 178.429688 104.320312 177.304688 103.855469 176.179688 L 97.019531 171.546875 L 100.136719 166.953125 L 101.042969 167.570312 C 97.015625 151.4375 99.511719 134.226562 108.40625 119.644531 C 110.492188 116.234375 112.871094 113.070312 115.492188 110.179688 L 113.464844 108.316406 L 117.21875 104.230469 L 119.425781 106.257812 C 130.140625 96.394531 144.070312 90.5625 158.980469 90.136719 C 160.46875 90.097656 161.980469 90.097656 163.476562 90.136719 C 179.785156 90.605469 194.929688 97.527344 205.976562 109.136719 L 207.960938 107.238281 L 211.785156 111.253906 L 209.640625 113.308594 C 211.246094 115.324219 212.734375 117.453125 214.097656 119.695312 C 225.238281 137.988281 226.375 160.390625 217.128906 179.632812 Z M 163.644531 84.589844 C 162.035156 84.542969 160.40625 84.542969 158.808594 84.589844 C 136.175781 85.234375 115.558594 97.261719 103.671875 116.761719 C 91.546875 136.640625 90.300781 161 100.332031 181.9375 C 105.019531 191.695312 110.898438 201.355469 117.808594 210.640625 C 142.367188 243.609375 149.660156 255.808594 151.117188 258.375 L 151.117188 257.664062 L 156.667969 257.664062 L 156.667969 260.441406 L 165.785156 260.441406 L 165.785156 257.664062 L 171.332031 257.664062 L 171.332031 258.382812 C 172.882812 255.660156 180.644531 242.660156 204.636719 210.644531 C 211.5625 201.402344 217.449219 191.777344 222.128906 182.03125 C 232.195312 161.097656 230.960938 136.707031 218.835938 116.808594 C 206.9375 97.28125 186.300781 85.234375 163.644531 84.589844 " fill-opacity="1" fill-rule="nonzero"/><path fill="#ffffff" d="M 156.667969 260.441406 L 152.191406 260.441406 L 151.421875 258.921875 C 151.414062 258.910156 151.324219 258.742188 151.117188 258.375 L 151.117188 266.726562 L 156.667969 266.726562 L 156.667969 260.441406 " fill-opacity="1" fill-rule="nonzero"/><path fill="#ffffff" d="M 152.191406 260.441406 L 156.667969 260.441406 L 156.667969 257.664062 L 151.117188 257.664062 L 151.117188 258.375 C 151.324219 258.742188 151.414062 258.910156 151.421875 258.921875 L 152.191406 260.441406 " fill-opacity="1" fill-rule="nonzero"/><path fill="#ffffff" d="M 170.234375 260.433594 L 168.5625 260.441406 L 165.785156 260.441406 L 165.785156 266.726562 L 171.332031 266.726562 L 171.332031 258.382812 C 171.121094 258.746094 171.019531 258.9375 171.015625 258.949219 L 170.234375 260.433594 " fill-opacity="1" fill-rule="nonzero"/><path fill="#ffffff" d="M 165.785156 257.664062 L 165.785156 260.441406 L 168.5625 260.441406 L 170.234375 260.433594 L 171.015625 258.949219 C 171.019531 258.9375 171.121094 258.746094 171.332031 258.382812 L 171.332031 257.664062 L 165.785156 257.664062 " fill-opacity="1" fill-rule="nonzero"/><path fill="#ffffff" d="M 177.496094 294.222656 L 144.953125 294.222656 L 144.953125 272.273438 L 177.496094 272.273438 Z M 165.785156 269.496094 L 165.785156 266.726562 L 156.667969 266.726562 L 156.667969 269.496094 L 151.117188 269.496094 L 151.117188 266.726562 L 142.460938 266.726562 C 140.78125 266.726562 139.414062 268.085938 139.414062 269.773438 L 139.414062 296.714844 C 139.414062 298.402344 140.78125 299.769531 142.460938 299.769531 L 179.996094 299.769531 C 181.675781 299.769531 183.042969 298.402344 183.042969 296.714844 L 183.042969 269.773438 C 183.042969 268.085938 181.675781 266.726562 179.996094 266.726562 L 171.332031 266.726562 L 171.332031 269.496094 L 165.785156 269.496094 " fill-opacity="1" fill-rule="nonzero"/><path fill="#ffffff" d="M 156.667969 269.496094 L 156.667969 266.726562 L 151.117188 266.726562 L 151.117188 269.496094 L 156.667969 269.496094 " fill-opacity="1" fill-rule="nonzero"/><path fill="#ffffff" d="M 165.785156 269.496094 L 171.332031 269.496094 L 171.332031 266.726562 L 165.785156 266.726562 L 165.785156 269.496094 " fill-opacity="1" fill-rule="nonzero"/><path fill="#ffffff" d="M 200.652344 162.933594 C 200.652344 162.925781 200.652344 162.925781 200.652344 162.917969 C 200.652344 162.925781 200.652344 162.925781 200.652344 162.933594 Z M 179.445312 156.632812 L 179.445312 156.625 Z M 151.726562 189.304688 C 151.726562 189.292969 151.730469 189.285156 151.738281 189.277344 C 151.730469 189.285156 151.726562 189.292969 151.726562 189.304688 Z M 126.9375 161.765625 C 126.945312 161.78125 126.949219 161.785156 126.949219 161.792969 C 126.949219 161.785156 126.945312 161.78125 126.9375 161.765625 Z M 206.1875 163.304688 C 206.28125 162.039062 205.554688 160.84375 204.390625 160.335938 C 203.234375 159.835938 201.863281 160.121094 201.003906 161.050781 L 186.476562 176.671875 L 180.183594 154.417969 C 179.859375 153.289062 178.90625 152.453125 177.738281 152.277344 C 176.574219 152.101562 175.421875 152.636719 174.785156 153.617188 L 153.65625 186.3125 L 131.277344 158.320312 C 130.582031 157.4375 129.457031 157.019531 128.367188 157.230469 C 127.261719 157.4375 126.382812 158.238281 126.054688 159.316406 L 119.777344 180.257812 L 101.042969 167.570312 C 101.777344 170.476562 102.703125 173.355469 103.855469 176.179688 L 119.546875 186.800781 C 120.332031 187.335938 121.328125 187.457031 122.222656 187.144531 C 123.125 186.828125 123.816406 186.089844 124.09375 185.179688 L 129.972656 165.574219 L 151.542969 192.550781 C 152.144531 193.300781 153.085938 193.714844 154.042969 193.667969 C 154.996094 193.613281 155.882812 193.097656 156.390625 192.296875 L 176.386719 161.367188 L 182.378906 182.558594 C 182.671875 183.59375 183.503906 184.394531 184.554688 184.644531 C 185.601562 184.902344 186.707031 184.570312 187.453125 183.773438 L 200.15625 170.105469 L 198.777344 190.503906 C 198.707031 191.546875 199.203125 192.5625 200.0625 193.160156 C 200.5625 193.511719 201.160156 193.6875 201.761719 193.6875 C 202.191406 193.6875 202.609375 193.597656 203.007812 193.421875 L 212.042969 189.304688 C 213.5625 186.636719 214.992188 183.953125 216.324219 181.257812 L 204.601562 186.597656 L 206.1875 163.304688 " fill-opacity="1" fill-rule="nonzero"/><path fill="#ffffff" d="M 100.136719 166.953125 L 97.019531 171.546875 L 103.855469 176.179688 C 102.703125 173.355469 101.777344 170.476562 101.042969 167.570312 L 100.136719 166.953125 " fill-opacity="1" fill-rule="nonzero"/><path fill="#ffffff" d="M 219.535156 185.886719 L 217.230469 180.839844 L 216.324219 181.257812 C 214.992188 183.953125 213.5625 186.636719 212.042969 189.304688 L 219.535156 185.886719 " fill-opacity="1" fill-rule="nonzero"/><path fill="#ffffff" d="M 134.148438 119.78125 L 134.136719 119.769531 Z M 175.117188 105.585938 C 175.113281 105.585938 175.113281 105.585938 175.113281 105.585938 C 175.113281 105.585938 175.113281 105.585938 175.117188 105.585938 Z M 132.558594 124.660156 C 133.351562 124.625 134.109375 124.265625 134.644531 123.675781 L 146.550781 110.578125 L 162.082031 123.925781 C 162.730469 124.480469 163.578125 124.726562 164.417969 124.617188 C 165.257812 124.507812 166.015625 124.042969 166.488281 123.34375 L 177.28125 107.632812 L 194.476562 123.859375 C 195.050781 124.394531 195.789062 124.664062 196.527344 124.664062 C 197.265625 124.664062 198.011719 124.386719 198.59375 123.839844 L 209.640625 113.308594 C 208.480469 111.84375 207.242188 110.46875 205.976562 109.136719 L 196.515625 118.148438 L 178.925781 101.550781 C 178.289062 100.945312 177.414062 100.664062 176.546875 100.75 C 175.675781 100.839844 174.886719 101.3125 174.394531 102.035156 L 163.53125 117.859375 L 148.277344 104.746094 C 147.046875 103.703125 145.222656 103.8125 144.113281 105.011719 L 132.265625 118.046875 L 119.425781 106.257812 C 118.0625 107.503906 116.742188 108.804688 115.492188 110.179688 L 130.398438 123.859375 C 130.980469 124.40625 131.730469 124.683594 132.558594 124.660156 " fill-opacity="1" fill-rule="nonzero"/><path fill="#ffffff" d="M 119.425781 106.257812 L 117.21875 104.230469 L 113.464844 108.316406 L 115.492188 110.179688 C 116.742188 108.804688 118.0625 107.503906 119.425781 106.257812 " fill-opacity="1" fill-rule="nonzero"/><path fill="#ffffff" d="M 211.785156 111.253906 L 207.960938 107.238281 L 205.976562 109.136719 C 207.242188 110.46875 208.480469 111.84375 209.640625 113.308594 L 211.785156 111.253906 " fill-opacity="1" fill-rule="nonzero"/><g fill="#545454" fill-opacity="1"><g transform="translate(1311.512304, 251.285326)"><g><path d="M 16.40625 0 L 16.40625 -120.359375 L 25.765625 -120.359375 L 25.765625 0 Z M 96.53125 0 L 96.53125 -120.359375 L 105.875 -120.359375 L 105.875 0 Z M 22.40625 -57.703125 L 22.40625 -66.171875 L 99.875 -66.171875 L 99.875 -57.703125 Z M 22.40625 -57.703125 "/></g></g></g><g fill="#545454" fill-opacity="1"><g transform="translate(1433.806811, 251.285326)"><g><path d="M 51 1.765625 C 42.882812 1.765625 35.5625 -0.113281 29.03125 -3.875 C 22.5 -7.644531 17.347656 -12.765625 13.578125 -19.234375 C 9.816406 -25.703125 7.9375 -33 7.9375 -41.125 C 7.9375 -49.238281 9.757812 -56.5 13.40625 -62.90625 C 17.050781 -69.320312 22.082031 -74.410156 28.5 -78.171875 C 34.914062 -81.941406 42.0625 -83.828125 49.9375 -83.828125 C 57.46875 -83.828125 64.085938 -82.148438 69.796875 -78.796875 C 75.503906 -75.441406 79.972656 -70.820312 83.203125 -64.9375 C 86.441406 -59.050781 88.0625 -52.285156 88.0625 -44.640625 C 88.0625 -43.941406 88 -43.03125 87.875 -41.90625 C 87.757812 -40.789062 87.585938 -39.410156 87.359375 -37.765625 L 14.296875 -37.765625 L 14.296875 -45.53125 L 82.234375 -45.53125 L 79.234375 -43.0625 C 79.472656 -49.53125 78.414062 -55.203125 76.0625 -60.078125 C 73.707031 -64.960938 70.289062 -68.757812 65.8125 -71.46875 C 61.34375 -74.175781 55.992188 -75.53125 49.765625 -75.53125 C 43.296875 -75.53125 37.585938 -74.085938 32.640625 -71.203125 C 27.703125 -68.316406 23.847656 -64.34375 21.078125 -59.28125 C 18.316406 -54.226562 16.9375 -48.347656 16.9375 -41.640625 C 16.9375 -34.585938 18.378906 -28.441406 21.265625 -23.203125 C 24.148438 -17.972656 28.179688 -13.914062 33.359375 -11.03125 C 38.535156 -8.144531 44.59375 -6.703125 51.53125 -6.703125 C 56.820312 -6.703125 61.734375 -7.671875 66.265625 -9.609375 C 70.796875 -11.554688 74.585938 -14.472656 77.640625 -18.359375 L 83.640625 -12.53125 C 79.878906 -8.0625 75.144531 -4.5625 69.4375 -2.03125 C 63.726562 0.5 57.582031 1.765625 51 1.765625 Z M 51 1.765625 "/></g></g></g><g fill="#545454" fill-opacity="1"><g transform="translate(1529.101218, 251.285326)"><g><path d="M 13.234375 0 L 13.234375 -123.875 L 22.234375 -123.875 L 22.234375 0 Z M 13.234375 0 "/></g></g></g><g fill="#545454" fill-opacity="1"><g transform="translate(1564.571926, 251.285326)"><g><path d="M 54.875 1.765625 C 48.757812 1.765625 43.144531 0.53125 38.03125 -1.9375 C 32.914062 -4.40625 28.648438 -7.84375 25.234375 -12.25 C 21.828125 -16.664062 19.59375 -21.816406 18.53125 -27.703125 L 18.53125 -54.53125 C 19.59375 -60.53125 21.859375 -65.734375 25.328125 -70.140625 C 28.796875 -74.554688 33.085938 -77.941406 38.203125 -80.296875 C 43.316406 -82.648438 48.875 -83.828125 54.875 -83.828125 C 62.644531 -83.828125 69.585938 -81.941406 75.703125 -78.171875 C 81.816406 -74.410156 86.640625 -69.289062 90.171875 -62.8125 C 93.703125 -56.34375 95.46875 -49.050781 95.46875 -40.9375 C 95.46875 -32.820312 93.703125 -25.554688 90.171875 -19.140625 C 86.640625 -12.734375 81.816406 -7.644531 75.703125 -3.875 C 69.585938 -0.113281 62.644531 1.765625 54.875 1.765625 Z M 13.234375 34.765625 L 13.234375 -82.0625 L 22.234375 -82.0625 L 22.234375 -61.59375 L 20.125 -41.640625 L 22.234375 -21.53125 L 22.234375 34.765625 Z M 53.296875 -6.703125 C 59.765625 -6.703125 65.46875 -8.171875 70.40625 -11.109375 C 75.351562 -14.054688 79.238281 -18.117188 82.0625 -23.296875 C 84.882812 -28.472656 86.296875 -34.414062 86.296875 -41.125 C 86.296875 -47.820312 84.882812 -53.757812 82.0625 -58.9375 C 79.238281 -64.113281 75.382812 -68.144531 70.5 -71.03125 C 65.613281 -73.914062 60.054688 -75.359375 53.828125 -75.359375 C 47.472656 -75.359375 41.910156 -73.914062 37.140625 -71.03125 C 32.378906 -68.144531 28.644531 -64.113281 25.9375 -58.9375 C 23.226562 -53.757812 21.875 -47.757812 21.875 -40.9375 C 21.875 -34.226562 23.195312 -28.316406 25.84375 -23.203125 C 28.5 -18.085938 32.207031 -14.054688 36.96875 -11.109375 C 41.738281 -8.171875 47.179688 -6.703125 53.296875 -6.703125 Z M 53.296875 -6.703125 "/></g></g></g><g fill="#545454" fill-opacity="1"><g transform="translate(1668.160451, 251.285326)"><g/></g></g><g fill="#545454" fill-opacity="1"><g transform="translate(1707.513502, 251.285326)"><g><path d="M 70.9375 1.765625 C 62.351562 1.765625 54.382812 0.175781 47.03125 -3 C 39.675781 -6.175781 33.265625 -10.585938 27.796875 -16.234375 C 22.328125 -21.878906 18.09375 -28.46875 15.09375 -36 C 12.09375 -43.53125 10.59375 -51.648438 10.59375 -60.359375 C 10.59375 -69.054688 12.0625 -77.140625 15 -84.609375 C 17.9375 -92.085938 22.140625 -98.617188 27.609375 -104.203125 C 33.085938 -109.796875 39.441406 -114.175781 46.671875 -117.34375 C 53.910156 -120.519531 61.820312 -122.109375 70.40625 -122.109375 C 79.351562 -122.109375 87.5 -120.460938 94.84375 -117.171875 C 102.195312 -113.878906 108.640625 -109.351562 114.171875 -103.59375 L 107.640625 -97.0625 C 103.171875 -102.113281 97.757812 -106.050781 91.40625 -108.875 C 85.050781 -111.695312 78.050781 -113.109375 70.40625 -113.109375 C 63.226562 -113.109375 56.582031 -111.785156 50.46875 -109.140625 C 44.351562 -106.492188 39.03125 -102.785156 34.5 -98.015625 C 29.96875 -93.253906 26.46875 -87.664062 24 -81.25 C 21.53125 -74.84375 20.296875 -67.878906 20.296875 -60.359375 C 20.296875 -52.828125 21.554688 -45.820312 24.078125 -39.34375 C 26.609375 -32.875 30.109375 -27.226562 34.578125 -22.40625 C 39.054688 -17.582031 44.382812 -13.847656 50.5625 -11.203125 C 56.738281 -8.554688 63.414062 -7.234375 70.59375 -7.234375 C 78.46875 -7.234375 85.640625 -8.671875 92.109375 -11.546875 C 98.585938 -14.429688 104.0625 -18.40625 108.53125 -23.46875 L 115.0625 -17.125 C 109.644531 -11.238281 103.203125 -6.617188 95.734375 -3.265625 C 88.265625 0.0859375 80 1.765625 70.9375 1.765625 Z M 70.9375 1.765625 "/></g></g></g><g fill="#545454" fill-opacity="1"><g transform="translate(1830.690345, 251.285326)"><g><path d="M 51 1.765625 C 42.882812 1.765625 35.5625 -0.113281 29.03125 -3.875 C 22.5 -7.644531 17.347656 -12.765625 13.578125 -19.234375 C 9.816406 -25.703125 7.9375 -33 7.9375 -41.125 C 7.9375 -49.238281 9.757812 -56.5 13.40625 -62.90625 C 17.050781 -69.320312 22.082031 -74.410156 28.5 -78.171875 C 34.914062 -81.941406 42.0625 -83.828125 49.9375 -83.828125 C 57.46875 -83.828125 64.085938 -82.148438 69.796875 -78.796875 C 75.503906 -75.441406 79.972656 -70.820312 83.203125 -64.9375 C 86.441406 -59.050781 88.0625 -52.285156 88.0625 -44.640625 C 88.0625 -43.941406 88 -43.03125 87.875 -41.90625 C 87.757812 -40.789062 87.585938 -39.410156 87.359375 -37.765625 L 14.296875 -37.765625 L 14.296875 -45.53125 L 82.234375 -45.53125 L 79.234375 -43.0625 C 79.472656 -49.53125 78.414062 -55.203125 76.0625 -60.078125 C 73.707031 -64.960938 70.289062 -68.757812 65.8125 -71.46875 C 61.34375 -74.175781 55.992188 -75.53125 49.765625 -75.53125 C 43.296875 -75.53125 37.585938 -74.085938 32.640625 -71.203125 C 27.703125 -68.316406 23.847656 -64.34375 21.078125 -59.28125 C 18.316406 -54.226562 16.9375 -48.347656 16.9375 -41.640625 C 16.9375 -34.585938 18.378906 -28.441406 21.265625 -23.203125 C 24.148438 -17.972656 28.179688 -13.914062 33.359375 -11.03125 C 38.535156 -8.144531 44.59375 -6.703125 51.53125 -6.703125 C 56.820312 -6.703125 61.734375 -7.671875 66.265625 -9.609375 C 70.796875 -11.554688 74.585938 -14.472656 77.640625 -18.359375 L 83.640625 -12.53125 C 79.878906 -8.0625 75.144531 -4.5625 69.4375 -2.03125 C 63.726562 0.5 57.582031 1.765625 51 1.765625 Z M 51 1.765625 "/></g></g></g><g fill="#545454" fill-opacity="1"><g transform="translate(1925.98474, 251.285326)"><g><path d="M 75 0 L 75 -48.703125 C 75 -56.703125 72.644531 -63.171875 67.9375 -68.109375 C 63.226562 -73.054688 56.992188 -75.53125 49.234375 -75.53125 C 43.941406 -75.53125 39.265625 -74.378906 35.203125 -72.078125 C 31.148438 -69.785156 27.972656 -66.640625 25.671875 -62.640625 C 23.378906 -58.640625 22.234375 -53.992188 22.234375 -48.703125 L 17.640625 -51.359375 C 17.640625 -57.585938 19.109375 -63.144531 22.046875 -68.03125 C 24.992188 -72.914062 28.992188 -76.769531 34.046875 -79.59375 C 39.109375 -82.414062 44.878906 -83.828125 51.359375 -83.828125 C 57.828125 -83.828125 63.5 -82.328125 68.375 -79.328125 C 73.257812 -76.328125 77.054688 -72.238281 79.765625 -67.0625 C 82.472656 -61.882812 83.828125 -56.117188 83.828125 -49.765625 L 83.828125 0 Z M 13.234375 0 L 13.234375 -82.0625 L 22.234375 -82.0625 L 22.234375 0 Z M 13.234375 0 "/></g></g></g><g fill="#545454" fill-opacity="1"><g transform="translate(2021.455662, 251.285326)"><g><path d="M 26.125 0 L 26.125 -116.828125 L 35.125 -116.828125 L 35.125 0 Z M 4.9375 -74.109375 L 4.9375 -82.0625 L 56.296875 -82.0625 L 56.296875 -74.109375 Z M 4.9375 -74.109375 "/></g></g></g><g fill="#545454" fill-opacity="1"><g transform="translate(2082.691116, 251.285326)"><g><path d="M 51 1.765625 C 42.882812 1.765625 35.5625 -0.113281 29.03125 -3.875 C 22.5 -7.644531 17.347656 -12.765625 13.578125 -19.234375 C 9.816406 -25.703125 7.9375 -33 7.9375 -41.125 C 7.9375 -49.238281 9.757812 -56.5 13.40625 -62.90625 C 17.050781 -69.320312 22.082031 -74.410156 28.5 -78.171875 C 34.914062 -81.941406 42.0625 -83.828125 49.9375 -83.828125 C 57.46875 -83.828125 64.085938 -82.148438 69.796875 -78.796875 C 75.503906 -75.441406 79.972656 -70.820312 83.203125 -64.9375 C 86.441406 -59.050781 88.0625 -52.285156 88.0625 -44.640625 C 88.0625 -43.941406 88 -43.03125 87.875 -41.90625 C 87.757812 -40.789062 87.585938 -39.410156 87.359375 -37.765625 L 14.296875 -37.765625 L 14.296875 -45.53125 L 82.234375 -45.53125 L 79.234375 -43.0625 C 79.472656 -49.53125 78.414062 -55.203125 76.0625 -60.078125 C 73.707031 -64.960938 70.289062 -68.757812 65.8125 -71.46875 C 61.34375 -74.175781 55.992188 -75.53125 49.765625 -75.53125 C 43.296875 -75.53125 37.585938 -74.085938 32.640625 -71.203125 C 27.703125 -68.316406 23.847656 -64.34375 21.078125 -59.28125 C 18.316406 -54.226562 16.9375 -48.347656 16.9375 -41.640625 C 16.9375 -34.585938 18.378906 -28.441406 21.265625 -23.203125 C 24.148438 -17.972656 28.179688 -13.914062 33.359375 -11.03125 C 38.535156 -8.144531 44.59375 -6.703125 51.53125 -6.703125 C 56.820312 -6.703125 61.734375 -7.671875 66.265625 -9.609375 C 70.796875 -11.554688 74.585938 -14.472656 77.640625 -18.359375 L 83.640625 -12.53125 C 79.878906 -8.0625 75.144531 -4.5625 69.4375 -2.03125 C 63.726562 0.5 57.582031 1.765625 51 1.765625 Z M 51 1.765625 "/></g></g></g><g fill="#545454" fill-opacity="1"><g transform="translate(2177.98555, 251.285326)"><g><path d="M 13.234375 0 L 13.234375 -82.0625 L 22.234375 -82.0625 L 22.234375 0 Z M 22.234375 -49.0625 L 17.828125 -50.640625 C 17.828125 -61.117188 20.472656 -69.269531 25.765625 -75.09375 C 31.054688 -80.914062 38 -83.828125 46.59375 -83.828125 C 50.59375 -83.828125 54.328125 -83.117188 57.796875 -81.703125 C 61.265625 -80.296875 64.46875 -78.003906 67.40625 -74.828125 L 61.40625 -68.46875 C 59.175781 -70.9375 56.765625 -72.703125 54.171875 -73.765625 C 51.585938 -74.828125 48.53125 -75.359375 45 -75.359375 C 38.289062 -75.359375 32.816406 -73.09375 28.578125 -68.5625 C 24.347656 -64.03125 22.234375 -57.53125 22.234375 -49.0625 Z M 22.234375 -49.0625 "/></g></g></g></svg>