<svg xmlns="http://www.w3.org/2000/svg" xmlns:xlink="http://www.w3.org/1999/xlink" width="2000" zoomAndPan="magnify" viewBox="0 0 1500 374.999991" height="500" preserveAspectRatio="xMidYMid meet" version="1.0"><defs><g/></defs><g fill="#ff914d" fill-opacity="1"><g transform="translate(388.515081, 285.549429)"><g><path d="M 19.703125 0 L 19.703125 -196.984375 L 105.8125 -196.984375 C 115 -196.984375 123.625 -195.109375 131.6875 -191.359375 C 139.757812 -187.609375 146.84375 -182.492188 152.9375 -176.015625 C 159.039062 -169.546875 163.828125 -161.992188 167.296875 -153.359375 C 170.765625 -144.734375 172.5 -135.445312 172.5 -125.5 C 172.5 -118 171.46875 -110.867188 169.40625 -104.109375 C 167.34375 -97.359375 164.382812 -91.265625 160.53125 -85.828125 C 156.6875 -80.390625 152.140625 -75.601562 146.890625 -71.46875 C 141.640625 -67.34375 135.921875 -64.0625 129.734375 -61.625 L 171.9375 0 L 118.75 0 L 79.921875 -57.40625 L 63.3125 -57.40625 L 63.3125 0 Z M 105.8125 -101.3125 C 112 -101.3125 117.25 -103.234375 121.5625 -107.078125 C 125.882812 -110.921875 128.046875 -116.78125 128.046875 -124.65625 C 128.046875 -128.601562 127.476562 -132.265625 126.34375 -135.640625 C 125.21875 -139.015625 123.625 -141.96875 121.5625 -144.5 C 119.5 -147.03125 117.15625 -149 114.53125 -150.40625 C 111.90625 -151.8125 109 -152.515625 105.8125 -152.515625 L 63.3125 -152.515625 L 63.3125 -101.3125 Z M 105.8125 -101.3125 "/></g></g></g><g fill="#ff914d" fill-opacity="1"><g transform="translate(573.681647, 285.549429)"><g><path d="M 90.328125 -157.59375 C 101.398438 -157.59375 111.8125 -155.476562 121.5625 -151.25 C 131.320312 -147.03125 139.8125 -141.304688 147.03125 -134.078125 C 154.257812 -126.859375 159.984375 -118.367188 164.203125 -108.609375 C 168.421875 -98.859375 170.53125 -88.453125 170.53125 -77.390625 C 170.53125 -66.316406 168.421875 -55.898438 164.203125 -46.140625 C 159.984375 -36.390625 154.257812 -27.851562 147.03125 -20.53125 C 139.8125 -13.21875 131.320312 -7.453125 121.5625 -3.234375 C 111.8125 0.984375 101.398438 3.09375 90.328125 3.09375 C 79.265625 3.09375 68.851562 0.984375 59.09375 -3.234375 C 49.34375 -7.453125 40.804688 -13.21875 33.484375 -20.53125 C 26.171875 -27.851562 20.398438 -36.390625 16.171875 -46.140625 C 11.953125 -55.898438 9.84375 -66.316406 9.84375 -77.390625 C 9.84375 -88.453125 11.953125 -98.859375 16.171875 -108.609375 C 20.398438 -118.367188 26.171875 -126.859375 33.484375 -134.078125 C 40.804688 -141.304688 49.34375 -147.03125 59.09375 -151.25 C 68.851562 -155.476562 79.265625 -157.59375 90.328125 -157.59375 Z M 52.0625 -77.390625 C 52.0625 -72.128906 53.046875 -67.15625 55.015625 -62.46875 C 56.984375 -57.78125 59.703125 -53.703125 63.171875 -50.234375 C 66.640625 -46.765625 70.71875 -44.039062 75.40625 -42.0625 C 80.101562 -40.09375 85.078125 -39.109375 90.328125 -39.109375 C 95.578125 -39.109375 100.5 -40.09375 105.09375 -42.0625 C 109.695312 -44.039062 113.734375 -46.765625 117.203125 -50.234375 C 120.671875 -53.703125 123.390625 -57.78125 125.359375 -62.46875 C 127.335938 -67.15625 128.328125 -72.128906 128.328125 -77.390625 C 128.328125 -82.640625 127.335938 -87.5625 125.359375 -92.15625 C 123.390625 -96.757812 120.671875 -100.796875 117.203125 -104.265625 C 113.734375 -107.734375 109.695312 -110.453125 105.09375 -112.421875 C 100.5 -114.390625 95.578125 -115.375 90.328125 -115.375 C 85.078125 -115.375 80.101562 -114.390625 75.40625 -112.421875 C 70.71875 -110.453125 66.640625 -107.734375 63.171875 -104.265625 C 59.703125 -100.796875 56.984375 -96.757812 55.015625 -92.15625 C 53.046875 -87.5625 52.0625 -82.640625 52.0625 -77.390625 Z M 52.0625 -77.390625 "/></g></g></g><g fill="#ff914d" fill-opacity="1"><g transform="translate(754.064284, 285.549429)"><g><path d="M 90.328125 -157.59375 C 104.023438 -157.59375 116.691406 -154.398438 128.328125 -148.015625 L 128.328125 -154.765625 L 170.53125 -154.765625 L 170.53125 0 L 128.328125 0 L 128.328125 -6.46875 C 116.691406 -0.09375 104.023438 3.09375 90.328125 3.09375 C 79.265625 3.09375 68.851562 0.984375 59.09375 -3.234375 C 49.34375 -7.453125 40.804688 -13.21875 33.484375 -20.53125 C 26.171875 -27.851562 20.398438 -36.390625 16.171875 -46.140625 C 11.953125 -55.898438 9.84375 -66.316406 9.84375 -77.390625 C 9.84375 -88.453125 11.953125 -98.859375 16.171875 -108.609375 C 20.398438 -118.367188 26.171875 -126.859375 33.484375 -134.078125 C 40.804688 -141.304688 49.34375 -147.03125 59.09375 -151.25 C 68.851562 -155.476562 79.265625 -157.59375 90.328125 -157.59375 Z M 90.328125 -39.109375 C 95.578125 -39.109375 100.5 -40.09375 105.09375 -42.0625 C 109.695312 -44.039062 113.734375 -46.765625 117.203125 -50.234375 C 120.671875 -53.703125 123.390625 -57.78125 125.359375 -62.46875 C 127.335938 -67.15625 128.328125 -72.128906 128.328125 -77.390625 C 128.328125 -82.640625 127.335938 -87.5625 125.359375 -92.15625 C 123.390625 -96.757812 120.671875 -100.796875 117.203125 -104.265625 C 113.734375 -107.734375 109.695312 -110.453125 105.09375 -112.421875 C 100.5 -114.390625 95.578125 -115.375 90.328125 -115.375 C 85.078125 -115.375 80.101562 -114.390625 75.40625 -112.421875 C 70.71875 -110.453125 66.640625 -107.734375 63.171875 -104.265625 C 59.703125 -100.796875 56.984375 -96.757812 55.015625 -92.15625 C 53.046875 -87.5625 52.0625 -82.640625 52.0625 -77.390625 C 52.0625 -72.128906 53.046875 -67.15625 55.015625 -62.46875 C 56.984375 -57.78125 59.703125 -53.703125 63.171875 -50.234375 C 66.640625 -46.765625 70.71875 -44.039062 75.40625 -42.0625 C 80.101562 -40.09375 85.078125 -39.109375 90.328125 -39.109375 Z M 90.328125 -39.109375 "/></g></g></g><g fill="#ff914d" fill-opacity="1"><g transform="translate(942.889162, 285.549429)"><g><path d="M 18.296875 -154.765625 L 60.5 -154.765625 L 60.5 -151.109375 C 69.507812 -155.429688 78.890625 -157.59375 88.640625 -157.59375 C 98.210938 -157.59375 107.21875 -155.617188 115.65625 -151.671875 C 124.101562 -147.734375 131.515625 -142.203125 137.890625 -135.078125 C 144.265625 -142.203125 151.671875 -147.734375 160.109375 -151.671875 C 168.554688 -155.617188 177.566406 -157.59375 187.140625 -157.59375 C 196.890625 -157.59375 206.03125 -155.523438 214.5625 -151.390625 C 223.101562 -147.265625 230.5625 -141.632812 236.9375 -134.5 C 243.320312 -127.375 248.390625 -119.023438 252.140625 -109.453125 C 255.890625 -99.890625 257.765625 -89.671875 257.765625 -78.796875 L 257.765625 0 L 215.5625 0 L 215.5625 -78.796875 C 215.5625 -84.796875 214.757812 -90.09375 213.15625 -94.6875 C 211.5625 -99.289062 209.40625 -103.09375 206.6875 -106.09375 C 203.96875 -109.09375 200.921875 -111.34375 197.546875 -112.84375 C 194.171875 -114.34375 190.703125 -115.09375 187.140625 -115.09375 C 182.253906 -115.09375 178.03125 -114.015625 174.46875 -111.859375 C 170.90625 -109.703125 168 -106.882812 165.75 -103.40625 C 163.5 -99.9375 161.8125 -96.046875 160.6875 -91.734375 C 159.5625 -87.421875 159 -83.109375 159 -78.796875 L 159 0 L 116.78125 0 L 116.78125 -78.796875 C 116.78125 -83.109375 116.21875 -87.375 115.09375 -91.59375 C 113.96875 -95.8125 112.28125 -99.703125 110.03125 -103.265625 C 107.78125 -106.835938 104.867188 -109.703125 101.296875 -111.859375 C 97.734375 -114.015625 93.515625 -115.09375 88.640625 -115.09375 C 85.078125 -115.09375 81.609375 -114.34375 78.234375 -112.84375 C 74.859375 -111.34375 71.851562 -109.09375 69.21875 -106.09375 C 66.59375 -103.09375 64.484375 -99.289062 62.890625 -94.6875 C 61.296875 -90.09375 60.5 -84.796875 60.5 -78.796875 L 60.5 0 L 18.296875 0 Z M 18.296875 -154.765625 "/></g></g></g><g fill="#ff914d" fill-opacity="1"><g transform="translate(1217.543604, 285.549429)"><g><path d="M 22.234375 -154.765625 L 64.4375 -154.765625 L 64.4375 0 L 22.234375 0 Z M 18.296875 -196.140625 C 18.296875 -203.078125 20.734375 -208.984375 25.609375 -213.859375 C 30.484375 -218.742188 36.394531 -221.1875 43.34375 -221.1875 C 50.28125 -221.1875 56.1875 -218.742188 61.0625 -213.859375 C 65.9375 -208.984375 68.375 -203.078125 68.375 -196.140625 C 68.375 -189.203125 65.9375 -183.289062 61.0625 -178.40625 C 56.1875 -173.53125 50.28125 -171.09375 43.34375 -171.09375 C 36.394531 -171.09375 30.484375 -173.53125 25.609375 -178.40625 C 20.734375 -183.289062 18.296875 -189.203125 18.296875 -196.140625 Z M 18.296875 -196.140625 "/></g></g></g><g fill="#ff914d" fill-opacity="1"><g transform="translate(1304.217263, 285.549429)"><g><path d="M 90.328125 -157.59375 C 101.398438 -157.59375 111.8125 -155.476562 121.5625 -151.25 C 131.320312 -147.03125 139.8125 -141.304688 147.03125 -134.078125 C 154.257812 -126.859375 159.984375 -118.367188 164.203125 -108.609375 C 168.421875 -98.859375 170.53125 -88.453125 170.53125 -77.390625 C 170.53125 -66.316406 168.421875 -55.898438 164.203125 -46.140625 C 159.984375 -36.390625 154.257812 -27.851562 147.03125 -20.53125 C 139.8125 -13.21875 131.320312 -7.453125 121.5625 -3.234375 C 111.8125 0.984375 101.398438 3.09375 90.328125 3.09375 C 79.265625 3.09375 68.851562 0.984375 59.09375 -3.234375 C 49.34375 -7.453125 40.804688 -13.21875 33.484375 -20.53125 C 26.171875 -27.851562 20.398438 -36.390625 16.171875 -46.140625 C 11.953125 -55.898438 9.84375 -66.316406 9.84375 -77.390625 C 9.84375 -88.453125 11.953125 -98.859375 16.171875 -108.609375 C 20.398438 -118.367188 26.171875 -126.859375 33.484375 -134.078125 C 40.804688 -141.304688 49.34375 -147.03125 59.09375 -151.25 C 68.851562 -155.476562 79.265625 -157.59375 90.328125 -157.59375 Z M 52.0625 -77.390625 C 52.0625 -72.128906 53.046875 -67.15625 55.015625 -62.46875 C 56.984375 -57.78125 59.703125 -53.703125 63.171875 -50.234375 C 66.640625 -46.765625 70.71875 -44.039062 75.40625 -42.0625 C 80.101562 -40.09375 85.078125 -39.109375 90.328125 -39.109375 C 95.578125 -39.109375 100.5 -40.09375 105.09375 -42.0625 C 109.695312 -44.039062 113.734375 -46.765625 117.203125 -50.234375 C 120.671875 -53.703125 123.390625 -57.78125 125.359375 -62.46875 C 127.335938 -67.15625 128.328125 -72.128906 128.328125 -77.390625 C 128.328125 -82.640625 127.335938 -87.5625 125.359375 -92.15625 C 123.390625 -96.757812 120.671875 -100.796875 117.203125 -104.265625 C 113.734375 -107.734375 109.695312 -110.453125 105.09375 -112.421875 C 100.5 -114.390625 95.578125 -115.375 90.328125 -115.375 C 85.078125 -115.375 80.101562 -114.390625 75.40625 -112.421875 C 70.71875 -110.453125 66.640625 -107.734375 63.171875 -104.265625 C 59.703125 -100.796875 56.984375 -96.757812 55.015625 -92.15625 C 53.046875 -87.5625 52.0625 -82.640625 52.0625 -77.390625 Z M 52.0625 -77.390625 "/></g></g></g><path fill="#ff914d" d="M 48.863281 101.039062 C 70.1875 60.988281 114.320312 34.355469 160.65625 28.90625 C 196.539062 24.679688 233.75 31.515625 269.367188 49.632812 C 373.128906 107.972656 352.390625 223.089844 342.730469 260.46875 C 324.359375 331.550781 216.054688 343.71875 139.800781 342.40625 C 39.902344 340.679688 -0.046875 192.835938 48.863281 101.039062 " fill-opacity="1" fill-rule="nonzero"/><path fill="#ff914d" d="M 246.480469 92.445312 L 233.496094 104.820312 C 232.808594 105.464844 231.933594 105.789062 231.066406 105.789062 C 230.199219 105.789062 229.328125 105.472656 228.652344 104.84375 L 208.433594 85.777344 L 195.75 104.238281 C 195.191406 105.058594 194.300781 105.609375 193.3125 105.734375 C 192.324219 105.863281 191.328125 105.574219 190.566406 104.921875 L 172.304688 89.238281 L 158.304688 104.628906 C 157.675781 105.320312 156.785156 105.742188 155.855469 105.78125 C 154.882812 105.8125 154 105.488281 153.3125 104.84375 L 135.785156 88.769531 C 132.707031 92.167969 129.910156 95.882812 127.457031 99.894531 C 117 117.027344 114.0625 137.246094 118.800781 156.199219 L 140.828125 171.105469 L 148.210938 146.5 C 148.589844 145.234375 149.625 144.296875 150.925781 144.050781 C 152.207031 143.804688 153.527344 144.296875 154.347656 145.332031 L 180.660156 178.21875 L 205.503906 139.808594 C 206.253906 138.65625 207.605469 138.027344 208.976562 138.234375 C 210.34375 138.441406 211.46875 139.417969 211.851562 140.746094 L 219.25 166.894531 L 236.328125 148.539062 C 237.339844 147.449219 238.949219 147.113281 240.3125 147.703125 C 241.679688 148.300781 242.53125 149.699219 242.421875 151.1875 L 240.558594 178.554688 L 254.339844 172.28125 C 254.660156 171.636719 254.980469 171.011719 255.289062 170.375 C 266.160156 147.765625 264.820312 121.441406 251.722656 99.949219 C 250.121094 97.316406 248.371094 94.816406 246.480469 92.445312 " fill-opacity="1" fill-rule="nonzero"/><path fill="#ffffff" d="M 255.289062 170.375 C 254.980469 171.011719 254.660156 171.636719 254.339844 172.28125 L 255.410156 171.789062 L 258.117188 177.71875 L 249.308594 181.738281 C 245.207031 188.914062 240.558594 196.003906 235.382812 202.894531 C 208.855469 238.265625 199.125 253.917969 196.273438 258.789062 L 182.847656 258.789062 C 180.085938 254.070312 170.714844 239.09375 143.75 202.902344 C 135.867188 192.335938 129.167969 181.355469 123.851562 170.261719 C 123.230469 168.957031 122.65625 167.636719 122.105469 166.316406 L 114.070312 160.871094 L 117.734375 155.476562 L 118.800781 156.199219 C 114.0625 137.246094 117 117.027344 127.457031 99.894531 C 129.910156 95.882812 132.707031 92.167969 135.785156 88.769531 L 133.40625 86.582031 L 137.816406 81.78125 L 140.414062 84.164062 C 153.011719 72.574219 169.390625 65.726562 186.917969 65.222656 C 188.667969 65.175781 190.445312 65.175781 192.207031 65.222656 C 211.378906 65.773438 229.1875 73.90625 242.175781 87.542969 L 244.507812 85.316406 L 249.007812 90.035156 L 246.480469 92.445312 C 248.371094 94.816406 250.121094 97.316406 251.722656 99.949219 C 264.820312 121.441406 266.160156 147.765625 255.289062 170.375 Z M 192.40625 58.707031 C 190.507812 58.652344 188.597656 58.652344 186.71875 58.707031 C 160.105469 59.460938 135.867188 73.59375 121.890625 96.503906 C 107.636719 119.859375 106.171875 148.480469 117.964844 173.078125 C 123.476562 184.546875 130.386719 195.894531 138.511719 206.800781 C 167.382812 245.539062 175.960938 259.871094 177.671875 262.886719 L 177.671875 262.050781 L 184.203125 262.050781 L 184.203125 265.3125 L 194.921875 265.3125 L 194.921875 262.050781 L 201.441406 262.050781 L 201.441406 262.894531 C 203.265625 259.695312 212.390625 244.425781 240.597656 206.8125 C 248.742188 195.949219 255.664062 184.640625 261.167969 173.191406 C 273 148.59375 271.550781 119.9375 257.296875 96.558594 C 243.304688 73.617188 219.042969 59.460938 192.40625 58.707031 " fill-opacity="1" fill-rule="nonzero"/><path fill="#ffffff" d="M 184.203125 265.3125 L 178.9375 265.3125 L 178.03125 263.53125 C 178.023438 263.515625 177.917969 263.316406 177.671875 262.886719 L 177.671875 272.699219 L 184.203125 272.699219 L 184.203125 265.3125 " fill-opacity="1" fill-rule="nonzero"/><path fill="#ffffff" d="M 178.9375 265.3125 L 184.203125 265.3125 L 184.203125 262.050781 L 177.671875 262.050781 L 177.671875 262.886719 C 177.917969 263.316406 178.023438 263.515625 178.03125 263.53125 L 178.9375 265.3125 " fill-opacity="1" fill-rule="nonzero"/><path fill="#ffffff" d="M 200.152344 265.304688 L 198.1875 265.3125 L 194.921875 265.3125 L 194.921875 272.699219 L 201.441406 272.699219 L 201.441406 262.894531 C 201.195312 263.324219 201.078125 263.546875 201.070312 263.5625 L 200.152344 265.304688 " fill-opacity="1" fill-rule="nonzero"/><path fill="#ffffff" d="M 194.921875 262.050781 L 194.921875 265.3125 L 198.1875 265.3125 L 200.152344 265.304688 L 201.070312 263.5625 C 201.078125 263.546875 201.195312 263.324219 201.441406 262.894531 L 201.441406 262.050781 L 194.921875 262.050781 " fill-opacity="1" fill-rule="nonzero"/><path fill="#ffffff" d="M 208.6875 305.003906 L 170.425781 305.003906 L 170.425781 279.214844 L 208.6875 279.214844 Z M 194.921875 275.953125 L 194.921875 272.699219 L 184.203125 272.699219 L 184.203125 275.953125 L 177.671875 275.953125 L 177.671875 272.699219 L 167.496094 272.699219 C 165.519531 272.699219 163.914062 274.296875 163.914062 276.277344 L 163.914062 307.933594 C 163.914062 309.914062 165.519531 311.523438 167.496094 311.523438 L 211.628906 311.523438 C 213.601562 311.523438 215.210938 309.914062 215.210938 307.933594 L 215.210938 276.277344 C 215.210938 274.296875 213.601562 272.699219 211.628906 272.699219 L 201.441406 272.699219 L 201.441406 275.953125 L 194.921875 275.953125 " fill-opacity="1" fill-rule="nonzero"/><path fill="#ffffff" d="M 184.203125 275.953125 L 184.203125 272.699219 L 177.671875 272.699219 L 177.671875 275.953125 L 184.203125 275.953125 " fill-opacity="1" fill-rule="nonzero"/><path fill="#ffffff" d="M 194.921875 275.953125 L 201.441406 275.953125 L 201.441406 272.699219 L 194.921875 272.699219 L 194.921875 275.953125 " fill-opacity="1" fill-rule="nonzero"/><path fill="#ffffff" d="M 235.914062 150.75 C 235.914062 150.742188 235.914062 150.742188 235.914062 150.734375 C 235.914062 150.742188 235.914062 150.742188 235.914062 150.75 Z M 210.984375 143.351562 L 210.984375 143.34375 Z M 178.390625 181.738281 C 178.390625 181.722656 178.398438 181.710938 178.40625 181.703125 C 178.398438 181.710938 178.390625 181.722656 178.390625 181.738281 Z M 149.246094 149.382812 C 149.253906 149.398438 149.261719 149.40625 149.261719 149.414062 C 149.261719 149.40625 149.253906 149.398438 149.246094 149.382812 Z M 242.421875 151.1875 C 242.53125 149.699219 241.679688 148.300781 240.3125 147.703125 C 238.949219 147.113281 237.339844 147.449219 236.328125 148.539062 L 219.25 166.894531 L 211.851562 140.746094 C 211.46875 139.417969 210.34375 138.441406 208.976562 138.234375 C 207.605469 138.027344 206.253906 138.65625 205.503906 139.808594 L 180.660156 178.21875 L 154.347656 145.332031 C 153.527344 144.296875 152.207031 143.804688 150.925781 144.050781 C 149.625 144.296875 148.589844 145.234375 148.210938 146.5 L 140.828125 171.105469 L 118.800781 156.199219 C 119.660156 159.613281 120.753906 162.996094 122.105469 166.316406 L 140.558594 178.792969 C 141.480469 179.421875 142.652344 179.5625 143.703125 179.199219 C 144.761719 178.824219 145.574219 177.957031 145.898438 176.890625 L 152.8125 153.855469 L 178.175781 185.546875 C 178.882812 186.429688 179.988281 186.917969 181.113281 186.859375 C 182.234375 186.796875 183.277344 186.191406 183.875 185.253906 L 207.382812 148.910156 L 214.429688 173.8125 C 214.773438 175.027344 215.753906 175.96875 216.988281 176.261719 C 218.222656 176.5625 219.519531 176.175781 220.394531 175.234375 L 235.332031 159.175781 L 233.710938 183.144531 C 233.628906 184.371094 234.210938 185.5625 235.222656 186.265625 C 235.8125 186.679688 236.511719 186.886719 237.222656 186.886719 C 237.722656 186.886719 238.214844 186.78125 238.6875 186.574219 L 249.308594 181.738281 C 251.09375 178.601562 252.773438 175.449219 254.339844 172.28125 L 240.558594 178.554688 L 242.421875 151.1875 " fill-opacity="1" fill-rule="nonzero"/><path fill="#ffffff" d="M 117.734375 155.476562 L 114.070312 160.871094 L 122.105469 166.316406 C 120.753906 162.996094 119.660156 159.613281 118.800781 156.199219 L 117.734375 155.476562 " fill-opacity="1" fill-rule="nonzero"/><path fill="#ffffff" d="M 258.117188 177.71875 L 255.410156 171.789062 L 254.339844 172.28125 C 252.773438 175.449219 251.09375 178.601562 249.308594 181.738281 L 258.117188 177.71875 " fill-opacity="1" fill-rule="nonzero"/><path fill="#ffffff" d="M 157.726562 100.054688 L 157.710938 100.039062 Z M 205.894531 83.375 C 205.886719 83.375 205.886719 83.375 205.886719 83.375 C 205.886719 83.375 205.886719 83.375 205.894531 83.375 Z M 155.855469 105.78125 C 156.785156 105.742188 157.675781 105.320312 158.304688 104.628906 L 172.304688 89.238281 L 190.566406 104.921875 C 191.328125 105.574219 192.324219 105.863281 193.3125 105.734375 C 194.300781 105.609375 195.191406 105.058594 195.75 104.238281 L 208.433594 85.777344 L 228.652344 104.84375 C 229.328125 105.472656 230.199219 105.789062 231.066406 105.789062 C 231.933594 105.789062 232.808594 105.464844 233.496094 104.820312 L 246.480469 92.445312 C 245.121094 90.726562 243.664062 89.113281 242.175781 87.542969 L 231.050781 98.136719 L 210.371094 78.632812 C 209.621094 77.921875 208.59375 77.589844 207.574219 77.691406 C 206.546875 77.796875 205.625 78.351562 205.042969 79.203125 L 192.269531 97.792969 L 174.335938 82.386719 C 172.886719 81.164062 170.746094 81.289062 169.4375 82.699219 L 155.511719 98.015625 L 140.414062 84.164062 C 138.8125 85.625 137.261719 87.152344 135.785156 88.769531 L 153.3125 104.84375 C 154 105.488281 154.882812 105.8125 155.855469 105.78125 " fill-opacity="1" fill-rule="nonzero"/><path fill="#ffffff" d="M 140.414062 84.164062 L 137.816406 81.78125 L 133.40625 86.582031 L 135.785156 88.769531 C 137.261719 87.152344 138.8125 85.625 140.414062 84.164062 " fill-opacity="1" fill-rule="nonzero"/><path fill="#ffffff" d="M 249.007812 90.035156 L 244.507812 85.316406 L 242.175781 87.542969 C 243.664062 89.113281 245.121094 90.726562 246.480469 92.445312 L 249.007812 90.035156 " fill-opacity="1" fill-rule="nonzero"/></svg>